<mxfile host="app.diagrams.net" modified="2024-06-03T16:09:33.718Z" agent="Mozilla/5.0 (Windows NT 10.0; Win64; x64) AppleWebKit/537.36 (KHTML, like Gecko) Chrome/125.0.0.0 Safari/537.36" etag="jq15V2m_zldwCftEgywO" version="24.4.9" type="github">
  <diagram name="Page-1" id="xOd3cYooBrTCxfXfaoy3">
    <mxGraphModel dx="1411" dy="800" grid="1" gridSize="10" guides="1" tooltips="1" connect="1" arrows="1" fold="1" page="1" pageScale="1" pageWidth="850" pageHeight="1100" math="0" shadow="0">
      <root>
        <mxCell id="0" />
        <mxCell id="1" parent="0" />
        <mxCell id="qs-GRtZ3yT4NtCFrbVrK-2" value="" style="ellipse;whiteSpace=wrap;html=1;aspect=fixed;" vertex="1" parent="1">
          <mxGeometry x="382.25" y="170" width="85" height="85" as="geometry" />
        </mxCell>
        <mxCell id="qs-GRtZ3yT4NtCFrbVrK-1" value="" style="shape=actor;whiteSpace=wrap;html=1;" vertex="1" parent="1">
          <mxGeometry x="399.75" y="181" width="50" height="60" as="geometry" />
        </mxCell>
        <mxCell id="qs-GRtZ3yT4NtCFrbVrK-3" value="Dr. Rodriguez" style="text;html=1;align=center;verticalAlign=middle;whiteSpace=wrap;rounded=0;" vertex="1" parent="1">
          <mxGeometry x="381" y="255" width="87.5" height="30" as="geometry" />
        </mxCell>
        <mxCell id="qs-GRtZ3yT4NtCFrbVrK-4" value="" style="rounded=0;whiteSpace=wrap;html=1;" vertex="1" parent="1">
          <mxGeometry x="150" y="30" width="550" height="94" as="geometry" />
        </mxCell>
        <mxCell id="qs-GRtZ3yT4NtCFrbVrK-5" value="&lt;h1&gt;&lt;span style=&quot;color: rgb(55, 58, 60); text-align: left; background-color: rgb(255, 255, 255);&quot;&gt;&lt;b style=&quot;&quot;&gt;&lt;font style=&quot;font-size: 40px;&quot; face=&quot;Times New Roman&quot;&gt;GestiÃ³n de consultas medicas&lt;/font&gt;&lt;/b&gt;&lt;/span&gt;&lt;/h1&gt;" style="text;html=1;align=center;verticalAlign=middle;whiteSpace=wrap;rounded=0;" vertex="1" parent="1">
          <mxGeometry x="150" y="32" width="550" height="90" as="geometry" />
        </mxCell>
        <mxCell id="qs-GRtZ3yT4NtCFrbVrK-6" value="&lt;h1&gt;&lt;font face=&quot;Times New Roman&quot;&gt;Consultas realizadas&lt;/font&gt;&lt;/h1&gt;" style="rounded=1;whiteSpace=wrap;html=1;" vertex="1" parent="1">
          <mxGeometry x="50" y="330" width="180" height="60" as="geometry" />
        </mxCell>
        <mxCell id="qs-GRtZ3yT4NtCFrbVrK-7" value="&lt;h1&gt;&lt;font style=&quot;font-size: 25px;&quot; face=&quot;Times New Roman&quot;&gt;Nueva consulta&lt;/font&gt;&lt;/h1&gt;" style="rounded=1;whiteSpace=wrap;html=1;" vertex="1" parent="1">
          <mxGeometry x="600" y="330" width="190" height="60" as="geometry" />
        </mxCell>
        <mxCell id="qs-GRtZ3yT4NtCFrbVrK-13" value="&lt;h1&gt;&lt;font style=&quot;font-size: 25px;&quot; face=&quot;Times New Roman&quot;&gt;Citas&lt;/font&gt;&lt;/h1&gt;" style="rounded=1;whiteSpace=wrap;html=1;" vertex="1" parent="1">
          <mxGeometry x="467.25" y="680" width="180" height="60" as="geometry" />
        </mxCell>
        <mxCell id="qs-GRtZ3yT4NtCFrbVrK-14" value="&lt;h1&gt;&lt;font face=&quot;Times New Roman&quot;&gt;&lt;span style=&quot;font-size: 25px;&quot;&gt;Turno&lt;/span&gt;&lt;/font&gt;&lt;/h1&gt;" style="rounded=1;whiteSpace=wrap;html=1;" vertex="1" parent="1">
          <mxGeometry x="468.5" y="1070" width="190" height="60" as="geometry" />
        </mxCell>
        <mxCell id="qs-GRtZ3yT4NtCFrbVrK-15" value="" style="group" vertex="1" connectable="0" parent="1">
          <mxGeometry x="320" y="520" width="550" height="94" as="geometry" />
        </mxCell>
        <mxCell id="qs-GRtZ3yT4NtCFrbVrK-11" value="" style="rounded=0;whiteSpace=wrap;html=1;" vertex="1" parent="qs-GRtZ3yT4NtCFrbVrK-15">
          <mxGeometry width="550" height="94" as="geometry" />
        </mxCell>
        <mxCell id="qs-GRtZ3yT4NtCFrbVrK-12" value="&lt;h1&gt;&lt;font style=&quot;font-size: 42px;&quot; face=&quot;Times New Roman&quot;&gt;Consultas realizadas&lt;/font&gt;&lt;/h1&gt;" style="text;html=1;align=center;verticalAlign=middle;whiteSpace=wrap;rounded=0;" vertex="1" parent="qs-GRtZ3yT4NtCFrbVrK-15">
          <mxGeometry y="2" width="550" height="90" as="geometry" />
        </mxCell>
        <mxCell id="qs-GRtZ3yT4NtCFrbVrK-16" value="" style="group" vertex="1" connectable="0" parent="1">
          <mxGeometry x="62.5" y="520" width="87.5" height="115" as="geometry" />
        </mxCell>
        <mxCell id="qs-GRtZ3yT4NtCFrbVrK-8" value="" style="ellipse;whiteSpace=wrap;html=1;aspect=fixed;" vertex="1" parent="qs-GRtZ3yT4NtCFrbVrK-16">
          <mxGeometry x="1.25" width="85" height="85" as="geometry" />
        </mxCell>
        <mxCell id="qs-GRtZ3yT4NtCFrbVrK-9" value="" style="shape=actor;whiteSpace=wrap;html=1;" vertex="1" parent="qs-GRtZ3yT4NtCFrbVrK-16">
          <mxGeometry x="18.75" y="11" width="50" height="60" as="geometry" />
        </mxCell>
        <mxCell id="qs-GRtZ3yT4NtCFrbVrK-10" value="Dr. Rodriguez" style="text;html=1;align=center;verticalAlign=middle;whiteSpace=wrap;rounded=0;" vertex="1" parent="qs-GRtZ3yT4NtCFrbVrK-16">
          <mxGeometry y="85" width="87.5" height="30" as="geometry" />
        </mxCell>
        <mxCell id="qs-GRtZ3yT4NtCFrbVrK-17" value="Assets" style="childLayout=tableLayout;recursiveResize=0;strokeColor=#98bf21;fillColor=#A7C942;shadow=1;" vertex="1" parent="1">
          <mxGeometry x="20" y="790" width="1000" height="200" as="geometry" />
        </mxCell>
        <mxCell id="qs-GRtZ3yT4NtCFrbVrK-18" style="shape=tableRow;horizontal=0;startSize=0;swimlaneHead=0;swimlaneBody=0;top=0;left=0;bottom=0;right=0;dropTarget=0;collapsible=0;recursiveResize=0;expand=0;fontStyle=0;strokeColor=inherit;fillColor=#ffffff;" vertex="1" parent="qs-GRtZ3yT4NtCFrbVrK-17">
          <mxGeometry width="1000" height="41" as="geometry" />
        </mxCell>
        <mxCell id="qs-GRtZ3yT4NtCFrbVrK-19" value="ID Paciente" style="connectable=0;recursiveResize=0;strokeColor=inherit;fillColor=#A7C942;align=center;fontStyle=1;fontColor=#FFFFFF;html=1;" vertex="1" parent="qs-GRtZ3yT4NtCFrbVrK-18">
          <mxGeometry width="198" height="41" as="geometry">
            <mxRectangle width="198" height="41" as="alternateBounds" />
          </mxGeometry>
        </mxCell>
        <mxCell id="qs-GRtZ3yT4NtCFrbVrK-38" value="Fecha agendada" style="connectable=0;recursiveResize=0;strokeColor=inherit;fillColor=#A7C942;align=center;fontStyle=1;fontColor=#FFFFFF;html=1;" vertex="1" parent="qs-GRtZ3yT4NtCFrbVrK-18">
          <mxGeometry x="198" width="201" height="41" as="geometry">
            <mxRectangle width="201" height="41" as="alternateBounds" />
          </mxGeometry>
        </mxCell>
        <mxCell id="qs-GRtZ3yT4NtCFrbVrK-45" value="Hora agendada" style="connectable=0;recursiveResize=0;strokeColor=inherit;fillColor=#A7C942;align=center;fontStyle=1;fontColor=#FFFFFF;html=1;" vertex="1" parent="qs-GRtZ3yT4NtCFrbVrK-18">
          <mxGeometry x="399" width="202" height="41" as="geometry">
            <mxRectangle width="202" height="41" as="alternateBounds" />
          </mxGeometry>
        </mxCell>
        <mxCell id="qs-GRtZ3yT4NtCFrbVrK-20" value="Nombre" style="connectable=0;recursiveResize=0;strokeColor=inherit;fillColor=#A7C942;align=center;fontStyle=1;fontColor=#FFFFFF;html=1;" vertex="1" parent="qs-GRtZ3yT4NtCFrbVrK-18">
          <mxGeometry x="601" width="201" height="41" as="geometry">
            <mxRectangle width="201" height="41" as="alternateBounds" />
          </mxGeometry>
        </mxCell>
        <mxCell id="qs-GRtZ3yT4NtCFrbVrK-21" value="Status" style="connectable=0;recursiveResize=0;strokeColor=inherit;fillColor=#A7C942;align=center;fontStyle=1;fontColor=#FFFFFF;html=1;" vertex="1" parent="qs-GRtZ3yT4NtCFrbVrK-18">
          <mxGeometry x="802" width="198" height="41" as="geometry">
            <mxRectangle width="198" height="41" as="alternateBounds" />
          </mxGeometry>
        </mxCell>
        <mxCell id="qs-GRtZ3yT4NtCFrbVrK-22" value="" style="shape=tableRow;horizontal=0;startSize=0;swimlaneHead=0;swimlaneBody=0;top=0;left=0;bottom=0;right=0;dropTarget=0;collapsible=0;recursiveResize=0;expand=0;fontStyle=0;strokeColor=inherit;fillColor=#ffffff;" vertex="1" parent="qs-GRtZ3yT4NtCFrbVrK-17">
          <mxGeometry y="41" width="1000" height="40" as="geometry" />
        </mxCell>
        <mxCell id="qs-GRtZ3yT4NtCFrbVrK-23" value="C-001" style="connectable=0;recursiveResize=0;strokeColor=inherit;fillColor=inherit;align=center;whiteSpace=wrap;html=1;" vertex="1" parent="qs-GRtZ3yT4NtCFrbVrK-22">
          <mxGeometry width="198" height="40" as="geometry">
            <mxRectangle width="198" height="40" as="alternateBounds" />
          </mxGeometry>
        </mxCell>
        <mxCell id="qs-GRtZ3yT4NtCFrbVrK-39" value="30/5/2024" style="connectable=0;recursiveResize=0;strokeColor=inherit;fillColor=inherit;align=center;whiteSpace=wrap;html=1;" vertex="1" parent="qs-GRtZ3yT4NtCFrbVrK-22">
          <mxGeometry x="198" width="201" height="40" as="geometry">
            <mxRectangle width="201" height="40" as="alternateBounds" />
          </mxGeometry>
        </mxCell>
        <mxCell id="qs-GRtZ3yT4NtCFrbVrK-46" value="1:00 PM" style="connectable=0;recursiveResize=0;strokeColor=inherit;fillColor=inherit;align=center;whiteSpace=wrap;html=1;" vertex="1" parent="qs-GRtZ3yT4NtCFrbVrK-22">
          <mxGeometry x="399" width="202" height="40" as="geometry">
            <mxRectangle width="202" height="40" as="alternateBounds" />
          </mxGeometry>
        </mxCell>
        <mxCell id="qs-GRtZ3yT4NtCFrbVrK-24" value="Juan Soto" style="connectable=0;recursiveResize=0;strokeColor=inherit;fillColor=inherit;align=center;whiteSpace=wrap;html=1;" vertex="1" parent="qs-GRtZ3yT4NtCFrbVrK-22">
          <mxGeometry x="601" width="201" height="40" as="geometry">
            <mxRectangle width="201" height="40" as="alternateBounds" />
          </mxGeometry>
        </mxCell>
        <mxCell id="qs-GRtZ3yT4NtCFrbVrK-25" value="Atendido" style="connectable=0;recursiveResize=0;strokeColor=inherit;fillColor=inherit;align=center;whiteSpace=wrap;html=1;" vertex="1" parent="qs-GRtZ3yT4NtCFrbVrK-22">
          <mxGeometry x="802" width="198" height="40" as="geometry">
            <mxRectangle width="198" height="40" as="alternateBounds" />
          </mxGeometry>
        </mxCell>
        <mxCell id="qs-GRtZ3yT4NtCFrbVrK-26" value="" style="shape=tableRow;horizontal=0;startSize=0;swimlaneHead=0;swimlaneBody=0;top=0;left=0;bottom=0;right=0;dropTarget=0;collapsible=0;recursiveResize=0;expand=0;fontStyle=1;strokeColor=inherit;fillColor=#EAF2D3;" vertex="1" parent="qs-GRtZ3yT4NtCFrbVrK-17">
          <mxGeometry y="81" width="1000" height="39" as="geometry" />
        </mxCell>
        <mxCell id="qs-GRtZ3yT4NtCFrbVrK-27" value="C-002" style="connectable=0;recursiveResize=0;strokeColor=inherit;fillColor=inherit;whiteSpace=wrap;html=1;" vertex="1" parent="qs-GRtZ3yT4NtCFrbVrK-26">
          <mxGeometry width="198" height="39" as="geometry">
            <mxRectangle width="198" height="39" as="alternateBounds" />
          </mxGeometry>
        </mxCell>
        <mxCell id="qs-GRtZ3yT4NtCFrbVrK-40" value="27/5/2024" style="connectable=0;recursiveResize=0;strokeColor=inherit;fillColor=inherit;whiteSpace=wrap;html=1;" vertex="1" parent="qs-GRtZ3yT4NtCFrbVrK-26">
          <mxGeometry x="198" width="201" height="39" as="geometry">
            <mxRectangle width="201" height="39" as="alternateBounds" />
          </mxGeometry>
        </mxCell>
        <mxCell id="qs-GRtZ3yT4NtCFrbVrK-47" value="9:00 AM" style="connectable=0;recursiveResize=0;strokeColor=inherit;fillColor=inherit;whiteSpace=wrap;html=1;" vertex="1" parent="qs-GRtZ3yT4NtCFrbVrK-26">
          <mxGeometry x="399" width="202" height="39" as="geometry">
            <mxRectangle width="202" height="39" as="alternateBounds" />
          </mxGeometry>
        </mxCell>
        <mxCell id="qs-GRtZ3yT4NtCFrbVrK-28" value="Rosa Peralta" style="connectable=0;recursiveResize=0;strokeColor=inherit;fillColor=inherit;whiteSpace=wrap;html=1;" vertex="1" parent="qs-GRtZ3yT4NtCFrbVrK-26">
          <mxGeometry x="601" width="201" height="39" as="geometry">
            <mxRectangle width="201" height="39" as="alternateBounds" />
          </mxGeometry>
        </mxCell>
        <mxCell id="qs-GRtZ3yT4NtCFrbVrK-29" value="No asistiÃ³" style="connectable=0;recursiveResize=0;strokeColor=inherit;fillColor=inherit;whiteSpace=wrap;html=1;" vertex="1" parent="qs-GRtZ3yT4NtCFrbVrK-26">
          <mxGeometry x="802" width="198" height="39" as="geometry">
            <mxRectangle width="198" height="39" as="alternateBounds" />
          </mxGeometry>
        </mxCell>
        <mxCell id="qs-GRtZ3yT4NtCFrbVrK-30" value="" style="shape=tableRow;horizontal=0;startSize=0;swimlaneHead=0;swimlaneBody=0;top=0;left=0;bottom=0;right=0;dropTarget=0;collapsible=0;recursiveResize=0;expand=0;fontStyle=0;strokeColor=inherit;fillColor=#ffffff;" vertex="1" parent="qs-GRtZ3yT4NtCFrbVrK-17">
          <mxGeometry y="120" width="1000" height="41" as="geometry" />
        </mxCell>
        <mxCell id="qs-GRtZ3yT4NtCFrbVrK-31" value="C-003" style="connectable=0;recursiveResize=0;strokeColor=inherit;fillColor=inherit;fontStyle=0;align=center;whiteSpace=wrap;html=1;" vertex="1" parent="qs-GRtZ3yT4NtCFrbVrK-30">
          <mxGeometry width="198" height="41" as="geometry">
            <mxRectangle width="198" height="41" as="alternateBounds" />
          </mxGeometry>
        </mxCell>
        <mxCell id="qs-GRtZ3yT4NtCFrbVrK-41" value="27/5/2024" style="connectable=0;recursiveResize=0;strokeColor=inherit;fillColor=inherit;fontStyle=0;align=center;whiteSpace=wrap;html=1;" vertex="1" parent="qs-GRtZ3yT4NtCFrbVrK-30">
          <mxGeometry x="198" width="201" height="41" as="geometry">
            <mxRectangle width="201" height="41" as="alternateBounds" />
          </mxGeometry>
        </mxCell>
        <mxCell id="qs-GRtZ3yT4NtCFrbVrK-48" value="10:30 AM" style="connectable=0;recursiveResize=0;strokeColor=inherit;fillColor=inherit;fontStyle=0;align=center;whiteSpace=wrap;html=1;" vertex="1" parent="qs-GRtZ3yT4NtCFrbVrK-30">
          <mxGeometry x="399" width="202" height="41" as="geometry">
            <mxRectangle width="202" height="41" as="alternateBounds" />
          </mxGeometry>
        </mxCell>
        <mxCell id="qs-GRtZ3yT4NtCFrbVrK-32" value="Pedro MartÃ­nez" style="connectable=0;recursiveResize=0;strokeColor=inherit;fillColor=inherit;fontStyle=0;align=center;whiteSpace=wrap;html=1;" vertex="1" parent="qs-GRtZ3yT4NtCFrbVrK-30">
          <mxGeometry x="601" width="201" height="41" as="geometry">
            <mxRectangle width="201" height="41" as="alternateBounds" />
          </mxGeometry>
        </mxCell>
        <mxCell id="qs-GRtZ3yT4NtCFrbVrK-33" value="Atendido" style="connectable=0;recursiveResize=0;strokeColor=inherit;fillColor=inherit;fontStyle=0;align=center;whiteSpace=wrap;html=1;" vertex="1" parent="qs-GRtZ3yT4NtCFrbVrK-30">
          <mxGeometry x="802" width="198" height="41" as="geometry">
            <mxRectangle width="198" height="41" as="alternateBounds" />
          </mxGeometry>
        </mxCell>
        <mxCell id="qs-GRtZ3yT4NtCFrbVrK-34" value="" style="shape=tableRow;horizontal=0;startSize=0;swimlaneHead=0;swimlaneBody=0;top=0;left=0;bottom=0;right=0;dropTarget=0;collapsible=0;recursiveResize=0;expand=0;fontStyle=1;strokeColor=inherit;fillColor=#EAF2D3;" vertex="1" parent="qs-GRtZ3yT4NtCFrbVrK-17">
          <mxGeometry y="161" width="1000" height="39" as="geometry" />
        </mxCell>
        <mxCell id="qs-GRtZ3yT4NtCFrbVrK-35" value="C-004" style="connectable=0;recursiveResize=0;strokeColor=inherit;fillColor=inherit;whiteSpace=wrap;html=1;" vertex="1" parent="qs-GRtZ3yT4NtCFrbVrK-34">
          <mxGeometry width="198" height="39" as="geometry">
            <mxRectangle width="198" height="39" as="alternateBounds" />
          </mxGeometry>
        </mxCell>
        <mxCell id="qs-GRtZ3yT4NtCFrbVrK-42" value="31/5/2024" style="connectable=0;recursiveResize=0;strokeColor=inherit;fillColor=inherit;whiteSpace=wrap;html=1;" vertex="1" parent="qs-GRtZ3yT4NtCFrbVrK-34">
          <mxGeometry x="198" width="201" height="39" as="geometry">
            <mxRectangle width="201" height="39" as="alternateBounds" />
          </mxGeometry>
        </mxCell>
        <mxCell id="qs-GRtZ3yT4NtCFrbVrK-49" value="9:30 AM" style="connectable=0;recursiveResize=0;strokeColor=inherit;fillColor=inherit;whiteSpace=wrap;html=1;" vertex="1" parent="qs-GRtZ3yT4NtCFrbVrK-34">
          <mxGeometry x="399" width="202" height="39" as="geometry">
            <mxRectangle width="202" height="39" as="alternateBounds" />
          </mxGeometry>
        </mxCell>
        <mxCell id="qs-GRtZ3yT4NtCFrbVrK-36" value="Margarita Gonzales" style="connectable=0;recursiveResize=0;strokeColor=inherit;fillColor=inherit;whiteSpace=wrap;html=1;" vertex="1" parent="qs-GRtZ3yT4NtCFrbVrK-34">
          <mxGeometry x="601" width="201" height="39" as="geometry">
            <mxRectangle width="201" height="39" as="alternateBounds" />
          </mxGeometry>
        </mxCell>
        <mxCell id="qs-GRtZ3yT4NtCFrbVrK-37" value="Atendido" style="connectable=0;recursiveResize=0;strokeColor=inherit;fillColor=inherit;whiteSpace=wrap;html=1;" vertex="1" parent="qs-GRtZ3yT4NtCFrbVrK-34">
          <mxGeometry x="802" width="198" height="39" as="geometry">
            <mxRectangle width="198" height="39" as="alternateBounds" />
          </mxGeometry>
        </mxCell>
        <mxCell id="qs-GRtZ3yT4NtCFrbVrK-43" value="Ver detalles" style="rounded=1;whiteSpace=wrap;html=1;" vertex="1" parent="1">
          <mxGeometry x="1030" y="836" width="110" height="30" as="geometry" />
        </mxCell>
        <mxCell id="qs-GRtZ3yT4NtCFrbVrK-50" value="Ver detalles" style="rounded=1;whiteSpace=wrap;html=1;" vertex="1" parent="1">
          <mxGeometry x="1030" y="880" width="110" height="30" as="geometry" />
        </mxCell>
        <mxCell id="qs-GRtZ3yT4NtCFrbVrK-51" value="Ver detalles" style="rounded=1;whiteSpace=wrap;html=1;" vertex="1" parent="1">
          <mxGeometry x="1030" y="920" width="110" height="30" as="geometry" />
        </mxCell>
        <mxCell id="qs-GRtZ3yT4NtCFrbVrK-52" value="Ver detalles" style="rounded=1;whiteSpace=wrap;html=1;" vertex="1" parent="1">
          <mxGeometry x="1030" y="960" width="110" height="30" as="geometry" />
        </mxCell>
        <mxCell id="qs-GRtZ3yT4NtCFrbVrK-53" value="Assets" style="childLayout=tableLayout;recursiveResize=0;strokeColor=#98bf21;fillColor=#A7C942;shadow=1;" vertex="1" parent="1">
          <mxGeometry x="110" y="1190" width="802" height="200" as="geometry" />
        </mxCell>
        <mxCell id="qs-GRtZ3yT4NtCFrbVrK-54" style="shape=tableRow;horizontal=0;startSize=0;swimlaneHead=0;swimlaneBody=0;top=0;left=0;bottom=0;right=0;dropTarget=0;collapsible=0;recursiveResize=0;expand=0;fontStyle=0;strokeColor=inherit;fillColor=#ffffff;" vertex="1" parent="qs-GRtZ3yT4NtCFrbVrK-53">
          <mxGeometry width="802" height="41" as="geometry" />
        </mxCell>
        <mxCell id="qs-GRtZ3yT4NtCFrbVrK-55" value="ID Paciente" style="connectable=0;recursiveResize=0;strokeColor=inherit;fillColor=#A7C942;align=center;fontStyle=1;fontColor=#FFFFFF;html=1;" vertex="1" parent="qs-GRtZ3yT4NtCFrbVrK-54">
          <mxGeometry width="198" height="41" as="geometry">
            <mxRectangle width="198" height="41" as="alternateBounds" />
          </mxGeometry>
        </mxCell>
        <mxCell id="qs-GRtZ3yT4NtCFrbVrK-56" value="Fecha atendido" style="connectable=0;recursiveResize=0;strokeColor=inherit;fillColor=#A7C942;align=center;fontStyle=1;fontColor=#FFFFFF;html=1;" vertex="1" parent="qs-GRtZ3yT4NtCFrbVrK-54">
          <mxGeometry x="198" width="201" height="41" as="geometry">
            <mxRectangle width="201" height="41" as="alternateBounds" />
          </mxGeometry>
        </mxCell>
        <mxCell id="qs-GRtZ3yT4NtCFrbVrK-57" value="Hora atendido" style="connectable=0;recursiveResize=0;strokeColor=inherit;fillColor=#A7C942;align=center;fontStyle=1;fontColor=#FFFFFF;html=1;" vertex="1" parent="qs-GRtZ3yT4NtCFrbVrK-54">
          <mxGeometry x="399" width="202" height="41" as="geometry">
            <mxRectangle width="202" height="41" as="alternateBounds" />
          </mxGeometry>
        </mxCell>
        <mxCell id="qs-GRtZ3yT4NtCFrbVrK-58" value="Nombre" style="connectable=0;recursiveResize=0;strokeColor=inherit;fillColor=#A7C942;align=center;fontStyle=1;fontColor=#FFFFFF;html=1;" vertex="1" parent="qs-GRtZ3yT4NtCFrbVrK-54">
          <mxGeometry x="601" width="201" height="41" as="geometry">
            <mxRectangle width="201" height="41" as="alternateBounds" />
          </mxGeometry>
        </mxCell>
        <mxCell id="qs-GRtZ3yT4NtCFrbVrK-60" value="" style="shape=tableRow;horizontal=0;startSize=0;swimlaneHead=0;swimlaneBody=0;top=0;left=0;bottom=0;right=0;dropTarget=0;collapsible=0;recursiveResize=0;expand=0;fontStyle=0;strokeColor=inherit;fillColor=#ffffff;" vertex="1" parent="qs-GRtZ3yT4NtCFrbVrK-53">
          <mxGeometry y="41" width="802" height="40" as="geometry" />
        </mxCell>
        <mxCell id="qs-GRtZ3yT4NtCFrbVrK-61" value="T-001" style="connectable=0;recursiveResize=0;strokeColor=inherit;fillColor=inherit;align=center;whiteSpace=wrap;html=1;" vertex="1" parent="qs-GRtZ3yT4NtCFrbVrK-60">
          <mxGeometry width="198" height="40" as="geometry">
            <mxRectangle width="198" height="40" as="alternateBounds" />
          </mxGeometry>
        </mxCell>
        <mxCell id="qs-GRtZ3yT4NtCFrbVrK-62" value="30/5/2024" style="connectable=0;recursiveResize=0;strokeColor=inherit;fillColor=inherit;align=center;whiteSpace=wrap;html=1;" vertex="1" parent="qs-GRtZ3yT4NtCFrbVrK-60">
          <mxGeometry x="198" width="201" height="40" as="geometry">
            <mxRectangle width="201" height="40" as="alternateBounds" />
          </mxGeometry>
        </mxCell>
        <mxCell id="qs-GRtZ3yT4NtCFrbVrK-63" value="10:00 AM" style="connectable=0;recursiveResize=0;strokeColor=inherit;fillColor=inherit;align=center;whiteSpace=wrap;html=1;" vertex="1" parent="qs-GRtZ3yT4NtCFrbVrK-60">
          <mxGeometry x="399" width="202" height="40" as="geometry">
            <mxRectangle width="202" height="40" as="alternateBounds" />
          </mxGeometry>
        </mxCell>
        <mxCell id="qs-GRtZ3yT4NtCFrbVrK-64" value="Luis PeÃ±a" style="connectable=0;recursiveResize=0;strokeColor=inherit;fillColor=inherit;align=center;whiteSpace=wrap;html=1;" vertex="1" parent="qs-GRtZ3yT4NtCFrbVrK-60">
          <mxGeometry x="601" width="201" height="40" as="geometry">
            <mxRectangle width="201" height="40" as="alternateBounds" />
          </mxGeometry>
        </mxCell>
        <mxCell id="qs-GRtZ3yT4NtCFrbVrK-66" value="" style="shape=tableRow;horizontal=0;startSize=0;swimlaneHead=0;swimlaneBody=0;top=0;left=0;bottom=0;right=0;dropTarget=0;collapsible=0;recursiveResize=0;expand=0;fontStyle=1;strokeColor=inherit;fillColor=#EAF2D3;" vertex="1" parent="qs-GRtZ3yT4NtCFrbVrK-53">
          <mxGeometry y="81" width="802" height="39" as="geometry" />
        </mxCell>
        <mxCell id="qs-GRtZ3yT4NtCFrbVrK-67" value="T-002" style="connectable=0;recursiveResize=0;strokeColor=inherit;fillColor=inherit;whiteSpace=wrap;html=1;" vertex="1" parent="qs-GRtZ3yT4NtCFrbVrK-66">
          <mxGeometry width="198" height="39" as="geometry">
            <mxRectangle width="198" height="39" as="alternateBounds" />
          </mxGeometry>
        </mxCell>
        <mxCell id="qs-GRtZ3yT4NtCFrbVrK-68" value="27/5/2024" style="connectable=0;recursiveResize=0;strokeColor=inherit;fillColor=inherit;whiteSpace=wrap;html=1;" vertex="1" parent="qs-GRtZ3yT4NtCFrbVrK-66">
          <mxGeometry x="198" width="201" height="39" as="geometry">
            <mxRectangle width="201" height="39" as="alternateBounds" />
          </mxGeometry>
        </mxCell>
        <mxCell id="qs-GRtZ3yT4NtCFrbVrK-69" value="1:00 PM" style="connectable=0;recursiveResize=0;strokeColor=inherit;fillColor=inherit;whiteSpace=wrap;html=1;" vertex="1" parent="qs-GRtZ3yT4NtCFrbVrK-66">
          <mxGeometry x="399" width="202" height="39" as="geometry">
            <mxRectangle width="202" height="39" as="alternateBounds" />
          </mxGeometry>
        </mxCell>
        <mxCell id="qs-GRtZ3yT4NtCFrbVrK-70" value="Carlos Gomez" style="connectable=0;recursiveResize=0;strokeColor=inherit;fillColor=inherit;whiteSpace=wrap;html=1;" vertex="1" parent="qs-GRtZ3yT4NtCFrbVrK-66">
          <mxGeometry x="601" width="201" height="39" as="geometry">
            <mxRectangle width="201" height="39" as="alternateBounds" />
          </mxGeometry>
        </mxCell>
        <mxCell id="qs-GRtZ3yT4NtCFrbVrK-72" value="" style="shape=tableRow;horizontal=0;startSize=0;swimlaneHead=0;swimlaneBody=0;top=0;left=0;bottom=0;right=0;dropTarget=0;collapsible=0;recursiveResize=0;expand=0;fontStyle=0;strokeColor=inherit;fillColor=#ffffff;" vertex="1" parent="qs-GRtZ3yT4NtCFrbVrK-53">
          <mxGeometry y="120" width="802" height="41" as="geometry" />
        </mxCell>
        <mxCell id="qs-GRtZ3yT4NtCFrbVrK-73" value="T-003" style="connectable=0;recursiveResize=0;strokeColor=inherit;fillColor=inherit;fontStyle=0;align=center;whiteSpace=wrap;html=1;" vertex="1" parent="qs-GRtZ3yT4NtCFrbVrK-72">
          <mxGeometry width="198" height="41" as="geometry">
            <mxRectangle width="198" height="41" as="alternateBounds" />
          </mxGeometry>
        </mxCell>
        <mxCell id="qs-GRtZ3yT4NtCFrbVrK-74" value="27/5/2024" style="connectable=0;recursiveResize=0;strokeColor=inherit;fillColor=inherit;fontStyle=0;align=center;whiteSpace=wrap;html=1;" vertex="1" parent="qs-GRtZ3yT4NtCFrbVrK-72">
          <mxGeometry x="198" width="201" height="41" as="geometry">
            <mxRectangle width="201" height="41" as="alternateBounds" />
          </mxGeometry>
        </mxCell>
        <mxCell id="qs-GRtZ3yT4NtCFrbVrK-75" value="11:00 AM" style="connectable=0;recursiveResize=0;strokeColor=inherit;fillColor=inherit;fontStyle=0;align=center;whiteSpace=wrap;html=1;" vertex="1" parent="qs-GRtZ3yT4NtCFrbVrK-72">
          <mxGeometry x="399" width="202" height="41" as="geometry">
            <mxRectangle width="202" height="41" as="alternateBounds" />
          </mxGeometry>
        </mxCell>
        <mxCell id="qs-GRtZ3yT4NtCFrbVrK-76" value="David Ortiz" style="connectable=0;recursiveResize=0;strokeColor=inherit;fillColor=inherit;fontStyle=0;align=center;whiteSpace=wrap;html=1;" vertex="1" parent="qs-GRtZ3yT4NtCFrbVrK-72">
          <mxGeometry x="601" width="201" height="41" as="geometry">
            <mxRectangle width="201" height="41" as="alternateBounds" />
          </mxGeometry>
        </mxCell>
        <mxCell id="qs-GRtZ3yT4NtCFrbVrK-78" value="" style="shape=tableRow;horizontal=0;startSize=0;swimlaneHead=0;swimlaneBody=0;top=0;left=0;bottom=0;right=0;dropTarget=0;collapsible=0;recursiveResize=0;expand=0;fontStyle=1;strokeColor=inherit;fillColor=#EAF2D3;" vertex="1" parent="qs-GRtZ3yT4NtCFrbVrK-53">
          <mxGeometry y="161" width="802" height="39" as="geometry" />
        </mxCell>
        <mxCell id="qs-GRtZ3yT4NtCFrbVrK-79" value="T-004" style="connectable=0;recursiveResize=0;strokeColor=inherit;fillColor=inherit;whiteSpace=wrap;html=1;" vertex="1" parent="qs-GRtZ3yT4NtCFrbVrK-78">
          <mxGeometry width="198" height="39" as="geometry">
            <mxRectangle width="198" height="39" as="alternateBounds" />
          </mxGeometry>
        </mxCell>
        <mxCell id="qs-GRtZ3yT4NtCFrbVrK-80" value="31/5/2024" style="connectable=0;recursiveResize=0;strokeColor=inherit;fillColor=inherit;whiteSpace=wrap;html=1;" vertex="1" parent="qs-GRtZ3yT4NtCFrbVrK-78">
          <mxGeometry x="198" width="201" height="39" as="geometry">
            <mxRectangle width="201" height="39" as="alternateBounds" />
          </mxGeometry>
        </mxCell>
        <mxCell id="qs-GRtZ3yT4NtCFrbVrK-81" value="9:30 AM" style="connectable=0;recursiveResize=0;strokeColor=inherit;fillColor=inherit;whiteSpace=wrap;html=1;" vertex="1" parent="qs-GRtZ3yT4NtCFrbVrK-78">
          <mxGeometry x="399" width="202" height="39" as="geometry">
            <mxRectangle width="202" height="39" as="alternateBounds" />
          </mxGeometry>
        </mxCell>
        <mxCell id="qs-GRtZ3yT4NtCFrbVrK-82" value="Luisa Lopez" style="connectable=0;recursiveResize=0;strokeColor=inherit;fillColor=inherit;whiteSpace=wrap;html=1;" vertex="1" parent="qs-GRtZ3yT4NtCFrbVrK-78">
          <mxGeometry x="601" width="201" height="39" as="geometry">
            <mxRectangle width="201" height="39" as="alternateBounds" />
          </mxGeometry>
        </mxCell>
        <mxCell id="qs-GRtZ3yT4NtCFrbVrK-84" value="Ver detalles" style="rounded=1;whiteSpace=wrap;html=1;" vertex="1" parent="1">
          <mxGeometry x="920" y="1236" width="110" height="30" as="geometry" />
        </mxCell>
        <mxCell id="qs-GRtZ3yT4NtCFrbVrK-85" value="Ver detalles" style="rounded=1;whiteSpace=wrap;html=1;" vertex="1" parent="1">
          <mxGeometry x="920" y="1280" width="110" height="30" as="geometry" />
        </mxCell>
        <mxCell id="qs-GRtZ3yT4NtCFrbVrK-86" value="Ver detalles" style="rounded=1;whiteSpace=wrap;html=1;" vertex="1" parent="1">
          <mxGeometry x="920" y="1320" width="110" height="30" as="geometry" />
        </mxCell>
        <mxCell id="qs-GRtZ3yT4NtCFrbVrK-87" value="Ver detalles" style="rounded=1;whiteSpace=wrap;html=1;" vertex="1" parent="1">
          <mxGeometry x="920" y="1360" width="110" height="30" as="geometry" />
        </mxCell>
        <mxCell id="qs-GRtZ3yT4NtCFrbVrK-88" value="" style="group" vertex="1" connectable="0" parent="1">
          <mxGeometry x="1468.5" y="70" width="550" height="94" as="geometry" />
        </mxCell>
        <mxCell id="qs-GRtZ3yT4NtCFrbVrK-89" value="" style="rounded=0;whiteSpace=wrap;html=1;" vertex="1" parent="qs-GRtZ3yT4NtCFrbVrK-88">
          <mxGeometry width="550" height="94" as="geometry" />
        </mxCell>
        <mxCell id="qs-GRtZ3yT4NtCFrbVrK-90" value="&lt;h1&gt;&lt;font style=&quot;font-size: 42px;&quot; face=&quot;Times New Roman&quot;&gt;Nueva Consulta&lt;/font&gt;&lt;/h1&gt;" style="text;html=1;align=center;verticalAlign=middle;whiteSpace=wrap;rounded=0;" vertex="1" parent="qs-GRtZ3yT4NtCFrbVrK-88">
          <mxGeometry y="2" width="550" height="90" as="geometry" />
        </mxCell>
        <mxCell id="qs-GRtZ3yT4NtCFrbVrK-91" value="" style="group" vertex="1" connectable="0" parent="1">
          <mxGeometry x="1211" y="70" width="87.5" height="115" as="geometry" />
        </mxCell>
        <mxCell id="qs-GRtZ3yT4NtCFrbVrK-92" value="" style="ellipse;whiteSpace=wrap;html=1;aspect=fixed;" vertex="1" parent="qs-GRtZ3yT4NtCFrbVrK-91">
          <mxGeometry x="1.25" width="85" height="85" as="geometry" />
        </mxCell>
        <mxCell id="qs-GRtZ3yT4NtCFrbVrK-93" value="" style="shape=actor;whiteSpace=wrap;html=1;" vertex="1" parent="qs-GRtZ3yT4NtCFrbVrK-91">
          <mxGeometry x="18.75" y="11" width="50" height="60" as="geometry" />
        </mxCell>
        <mxCell id="qs-GRtZ3yT4NtCFrbVrK-94" value="Dr. Rodriguez" style="text;html=1;align=center;verticalAlign=middle;whiteSpace=wrap;rounded=0;" vertex="1" parent="qs-GRtZ3yT4NtCFrbVrK-91">
          <mxGeometry y="85" width="87.5" height="30" as="geometry" />
        </mxCell>
        <mxCell id="qs-GRtZ3yT4NtCFrbVrK-95" value="" style="rounded=0;whiteSpace=wrap;html=1;" vertex="1" parent="1">
          <mxGeometry x="1710" y="255" width="360" height="40" as="geometry" />
        </mxCell>
        <mxCell id="qs-GRtZ3yT4NtCFrbVrK-96" value="&lt;h1&gt;&lt;font face=&quot;Times New Roman&quot;&gt;Nombre del paciente&lt;/font&gt;&lt;/h1&gt;" style="text;html=1;align=center;verticalAlign=middle;whiteSpace=wrap;rounded=0;" vertex="1" parent="1">
          <mxGeometry x="1440" y="260" width="240" height="30" as="geometry" />
        </mxCell>
        <mxCell id="qs-GRtZ3yT4NtCFrbVrK-97" value="&lt;h1&gt;&lt;font face=&quot;Times New Roman&quot;&gt;&lt;span style=&quot;font-size: 25px;&quot;&gt;Agendar cita&lt;/span&gt;&lt;/font&gt;&lt;/h1&gt;" style="rounded=1;whiteSpace=wrap;html=1;" vertex="1" parent="1">
          <mxGeometry x="330" y="330" width="190" height="60" as="geometry" />
        </mxCell>
        <mxCell id="qs-GRtZ3yT4NtCFrbVrK-155" value="" style="dashed=0;labelPosition=right;align=left;shape=mxgraph.gmdl.radiobutton;strokeColor=#676767;fillColor=#676767;strokeWidth=2;aspect=fixed;sketch=0;html=1;" vertex="1" parent="1">
          <mxGeometry x="1189" y="254" width="16" height="16" as="geometry" />
        </mxCell>
        <mxCell id="qs-GRtZ3yT4NtCFrbVrK-156" value="" style="dashed=0;labelPosition=right;align=left;shape=mxgraph.gmdl.radiobutton;strokeColor=#666666;fillColor=none;strokeWidth=2;aspect=fixed;sketch=0;html=1;" vertex="1" parent="1">
          <mxGeometry x="1189" y="294" width="16" height="16" as="geometry" />
        </mxCell>
        <mxCell id="qs-GRtZ3yT4NtCFrbVrK-157" value="&lt;h1&gt;&lt;font style=&quot;font-size: 25px;&quot; face=&quot;Times New Roman&quot;&gt;Cita&lt;/font&gt;&lt;/h1&gt;" style="text;html=1;align=center;verticalAlign=middle;resizable=0;points=[];autosize=1;strokeColor=none;fillColor=none;" vertex="1" parent="1">
          <mxGeometry x="1211" y="222" width="70" height="80" as="geometry" />
        </mxCell>
        <mxCell id="qs-GRtZ3yT4NtCFrbVrK-159" value="&lt;h1&gt;&lt;font face=&quot;Times New Roman&quot;&gt;&lt;span style=&quot;font-size: 25px;&quot;&gt;Turno&lt;/span&gt;&lt;/font&gt;&lt;/h1&gt;" style="text;html=1;align=center;verticalAlign=middle;resizable=0;points=[];autosize=1;strokeColor=none;fillColor=none;" vertex="1" parent="1">
          <mxGeometry x="1211" y="262" width="90" height="80" as="geometry" />
        </mxCell>
        <mxCell id="qs-GRtZ3yT4NtCFrbVrK-161" value="&lt;h1&gt;&lt;font face=&quot;Times New Roman&quot;&gt;Hora atendido&lt;/font&gt;&lt;/h1&gt;" style="text;html=1;align=center;verticalAlign=middle;whiteSpace=wrap;rounded=0;" vertex="1" parent="1">
          <mxGeometry x="1441.5" y="710" width="240" height="30" as="geometry" />
        </mxCell>
        <mxCell id="qs-GRtZ3yT4NtCFrbVrK-163" value="&lt;h1&gt;&lt;font face=&quot;Times New Roman&quot;&gt;Fecha atendido&lt;/font&gt;&lt;/h1&gt;" style="text;html=1;align=center;verticalAlign=middle;whiteSpace=wrap;rounded=0;" vertex="1" parent="1">
          <mxGeometry x="2011.5" y="710" width="240" height="30" as="geometry" />
        </mxCell>
        <mxCell id="qs-GRtZ3yT4NtCFrbVrK-164" value="" style="shape=rect;fillColor=#424242;strokeColor=none;shadow=1;aspect=fixed;" vertex="1" parent="1">
          <mxGeometry x="1330" y="771" width="512" height="304" as="geometry" />
        </mxCell>
        <mxCell id="qs-GRtZ3yT4NtCFrbVrK-165" value="3:30" style="shape=rect;fillColor=#555555;fontColor=#ffffff;strokeColor=none;align=center;spacing=0;fontSize=52;verticalAlign=middle;spacingBottom=54;spacingLeft=16;whiteSpace=wrap;html=1;" vertex="1" parent="qs-GRtZ3yT4NtCFrbVrK-164">
          <mxGeometry width="168" height="304" as="geometry" />
        </mxCell>
        <mxCell id="qs-GRtZ3yT4NtCFrbVrK-166" value="AM" style="text;verticalAlign=middle;align=center;fontColor=#ffffff;fontSize=17;fontStyle=0;textOpacity=70;html=1;whiteSpace=wrap;" vertex="1" parent="qs-GRtZ3yT4NtCFrbVrK-165">
          <mxGeometry y="146" width="168" height="40" as="geometry" />
        </mxCell>
        <mxCell id="qs-GRtZ3yT4NtCFrbVrK-167" value="PM" style="text;verticalAlign=middle;align=center;fontColor=#ffffff;fontSize=17;html=1;whiteSpace=wrap;" vertex="1" parent="qs-GRtZ3yT4NtCFrbVrK-165">
          <mxGeometry y="170" width="168" height="40" as="geometry" />
        </mxCell>
        <mxCell id="qs-GRtZ3yT4NtCFrbVrK-168" value="" style="shape=ellipse;fillColor=#555555;strokeColor=none;whiteSpace=wrap;html=1;" vertex="1" parent="qs-GRtZ3yT4NtCFrbVrK-164">
          <mxGeometry x="228" y="16" width="224" height="224" as="geometry" />
        </mxCell>
        <mxCell id="qs-GRtZ3yT4NtCFrbVrK-169" value="3" style="dashed=0;shape=mxgraph.gmdl.time_picker;fillColor=#80CBC4;strokeColor=#80CBC4;verticalAlign=middle;align=right;fontColor=#555555;strokeWidth=2;spacingRight=9;fontSize=15;fontStyle=1;whiteSpace=wrap;html=1;" vertex="1" parent="qs-GRtZ3yT4NtCFrbVrK-168">
          <mxGeometry x="110" y="100" width="108" height="30" as="geometry" />
        </mxCell>
        <mxCell id="qs-GRtZ3yT4NtCFrbVrK-170" value="1" style="text;verticalAlign=middle;align=center;fontColor=#ffffff;fontSize=15;whiteSpace=wrap;html=1;" vertex="1" parent="qs-GRtZ3yT4NtCFrbVrK-164">
          <mxGeometry x="355" y="30" width="49" height="40" as="geometry" />
        </mxCell>
        <mxCell id="qs-GRtZ3yT4NtCFrbVrK-171" value="2" style="text;verticalAlign=middle;align=center;fontColor=#ffffff;fontSize=15;whiteSpace=wrap;html=1;" vertex="1" parent="qs-GRtZ3yT4NtCFrbVrK-164">
          <mxGeometry x="392" y="63" width="49" height="40" as="geometry" />
        </mxCell>
        <mxCell id="qs-GRtZ3yT4NtCFrbVrK-172" value="4" style="text;verticalAlign=middle;align=center;fontColor=#ffffff;fontSize=15;whiteSpace=wrap;html=1;" vertex="1" parent="qs-GRtZ3yT4NtCFrbVrK-164">
          <mxGeometry x="394" y="150" width="46" height="40" as="geometry" />
        </mxCell>
        <mxCell id="qs-GRtZ3yT4NtCFrbVrK-173" value="5" style="text;verticalAlign=middle;align=center;fontColor=#ffffff;fontSize=15;whiteSpace=wrap;html=1;" vertex="1" parent="qs-GRtZ3yT4NtCFrbVrK-164">
          <mxGeometry x="358" y="186" width="46" height="40" as="geometry" />
        </mxCell>
        <mxCell id="qs-GRtZ3yT4NtCFrbVrK-174" value="6" style="text;verticalAlign=middle;align=center;fontColor=#ffffff;fontSize=15;whiteSpace=wrap;html=1;" vertex="1" parent="qs-GRtZ3yT4NtCFrbVrK-164">
          <mxGeometry x="315" y="200" width="46" height="40" as="geometry" />
        </mxCell>
        <mxCell id="qs-GRtZ3yT4NtCFrbVrK-175" value="7" style="text;verticalAlign=middle;align=center;fontColor=#ffffff;fontSize=15;whiteSpace=wrap;html=1;" vertex="1" parent="qs-GRtZ3yT4NtCFrbVrK-164">
          <mxGeometry x="271" y="186" width="46" height="40" as="geometry" />
        </mxCell>
        <mxCell id="qs-GRtZ3yT4NtCFrbVrK-176" value="8" style="text;verticalAlign=middle;align=center;fontColor=#ffffff;fontSize=15;whiteSpace=wrap;html=1;" vertex="1" parent="qs-GRtZ3yT4NtCFrbVrK-164">
          <mxGeometry x="236" y="150" width="49" height="40" as="geometry" />
        </mxCell>
        <mxCell id="qs-GRtZ3yT4NtCFrbVrK-177" value="9" style="text;verticalAlign=middle;align=center;fontColor=#ffffff;fontSize=15;whiteSpace=wrap;html=1;" vertex="1" parent="qs-GRtZ3yT4NtCFrbVrK-164">
          <mxGeometry x="221" y="108" width="49" height="40" as="geometry" />
        </mxCell>
        <mxCell id="qs-GRtZ3yT4NtCFrbVrK-178" value="10" style="text;verticalAlign=middle;align=center;fontColor=#ffffff;fontSize=15;whiteSpace=wrap;html=1;" vertex="1" parent="qs-GRtZ3yT4NtCFrbVrK-164">
          <mxGeometry x="238" y="63" width="46" height="40" as="geometry" />
        </mxCell>
        <mxCell id="qs-GRtZ3yT4NtCFrbVrK-179" value="11" style="text;verticalAlign=middle;align=center;fontColor=#ffffff;fontSize=15;whiteSpace=wrap;html=1;" vertex="1" parent="qs-GRtZ3yT4NtCFrbVrK-164">
          <mxGeometry x="271" y="30" width="46" height="40" as="geometry" />
        </mxCell>
        <mxCell id="qs-GRtZ3yT4NtCFrbVrK-180" value="12" style="text;verticalAlign=middle;align=center;fontColor=#ffffff;fontSize=15;whiteSpace=wrap;html=1;" vertex="1" parent="qs-GRtZ3yT4NtCFrbVrK-164">
          <mxGeometry x="315" y="16" width="46" height="40" as="geometry" />
        </mxCell>
        <mxCell id="qs-GRtZ3yT4NtCFrbVrK-181" value="CANCEL" style="text;fontSize=13;fontColor=#80CBC4;spacingTop=0;whiteSpace=wrap;spacing=0;verticalAlign=middle;align=center;fontStyle=1;html=1;" vertex="1" parent="qs-GRtZ3yT4NtCFrbVrK-164">
          <mxGeometry x="1" y="1" width="70" height="50" relative="1" as="geometry">
            <mxPoint x="-160" y="-50" as="offset" />
          </mxGeometry>
        </mxCell>
        <mxCell id="qs-GRtZ3yT4NtCFrbVrK-182" value="OK" style="text;fontSize=13;fontColor=#80CBC4;spacingTop=0;whiteSpace=wrap;spacing=0;verticalAlign=middle;align=center;fontStyle=1;html=1;" vertex="1" parent="qs-GRtZ3yT4NtCFrbVrK-164">
          <mxGeometry x="1" y="1" width="90" height="50" relative="1" as="geometry">
            <mxPoint x="-90" y="-50" as="offset" />
          </mxGeometry>
        </mxCell>
        <mxCell id="qs-GRtZ3yT4NtCFrbVrK-183" value="" style="shape=rect;fillColor=#424242;strokeColor=#eeeeee;shadow=1;" vertex="1" parent="1">
          <mxGeometry x="1967.5" y="761" width="328" height="484" as="geometry" />
        </mxCell>
        <mxCell id="qs-GRtZ3yT4NtCFrbVrK-184" value="Thu, Apr 13" style="shape=rect;fillColor=#555555;fontColor=#ffffff;strokeColor=none;align=left;spacing=16;fontSize=33;verticalAlign=bottom;resizeWidth=1;whiteSpace=wrap;html=1;spacingBottom=-6;" vertex="1" parent="qs-GRtZ3yT4NtCFrbVrK-183">
          <mxGeometry width="328" height="96" relative="1" as="geometry" />
        </mxCell>
        <mxCell id="qs-GRtZ3yT4NtCFrbVrK-185" value="2017" style="text;verticalAlign=middle;fontColor=#FFFFFF;spacingTop=6;spacing=16;fontSize=15;textOpacity=70;resizeWidth=1;whiteSpace=wrap;html=1;" vertex="1" parent="qs-GRtZ3yT4NtCFrbVrK-184">
          <mxGeometry width="328" height="40" relative="1" as="geometry" />
        </mxCell>
        <mxCell id="qs-GRtZ3yT4NtCFrbVrK-186" value="&lt;" style="text;verticalAlign=middle;fontColor=#ffffff;spacingTop=6;spacing=16;fontSize=20;align=center;resizeWidth=1;" vertex="1" parent="qs-GRtZ3yT4NtCFrbVrK-183">
          <mxGeometry width="48" height="40" relative="1" as="geometry">
            <mxPoint y="96" as="offset" />
          </mxGeometry>
        </mxCell>
        <mxCell id="qs-GRtZ3yT4NtCFrbVrK-187" value="April 2017" style="text;verticalAlign=middle;fontColor=#ffffff;spacingTop=6;spacing=16;fontSize=13;align=center;fontStyle=1;resizeWidth=1;whiteSpace=wrap;html=1;" vertex="1" parent="qs-GRtZ3yT4NtCFrbVrK-183">
          <mxGeometry x="0.1463" width="232" height="40" relative="1" as="geometry">
            <mxPoint y="96" as="offset" />
          </mxGeometry>
        </mxCell>
        <mxCell id="qs-GRtZ3yT4NtCFrbVrK-188" value="&gt;" style="text;verticalAlign=middle;fontColor=#ffffff;spacingTop=6;spacing=16;fontSize=20;align=center;resizeWidth=1;" vertex="1" parent="qs-GRtZ3yT4NtCFrbVrK-183">
          <mxGeometry x="0.8537" width="48" height="40" relative="1" as="geometry">
            <mxPoint y="96" as="offset" />
          </mxGeometry>
        </mxCell>
        <mxCell id="qs-GRtZ3yT4NtCFrbVrK-189" value="S" style="text;verticalAlign=middle;align=center;fontColor=#cccccc;resizeWidth=1;whiteSpace=wrap;html=1;" vertex="1" parent="qs-GRtZ3yT4NtCFrbVrK-183">
          <mxGeometry width="49" height="40" relative="1" as="geometry">
            <mxPoint y="146" as="offset" />
          </mxGeometry>
        </mxCell>
        <mxCell id="qs-GRtZ3yT4NtCFrbVrK-190" value="M" style="text;verticalAlign=middle;align=center;fontColor=#cccccc;resizeWidth=1;whiteSpace=wrap;html=1;" vertex="1" parent="qs-GRtZ3yT4NtCFrbVrK-183">
          <mxGeometry x="0.1463" width="46" height="40" relative="1" as="geometry">
            <mxPoint y="146" as="offset" />
          </mxGeometry>
        </mxCell>
        <mxCell id="qs-GRtZ3yT4NtCFrbVrK-191" value="T" style="text;verticalAlign=middle;align=center;fontColor=#cccccc;resizeWidth=1;whiteSpace=wrap;html=1;" vertex="1" parent="qs-GRtZ3yT4NtCFrbVrK-183">
          <mxGeometry x="0.2896" width="46" height="40" relative="1" as="geometry">
            <mxPoint y="146" as="offset" />
          </mxGeometry>
        </mxCell>
        <mxCell id="qs-GRtZ3yT4NtCFrbVrK-192" value="W" style="text;verticalAlign=middle;align=center;fontColor=#cccccc;resizeWidth=1;whiteSpace=wrap;html=1;" vertex="1" parent="qs-GRtZ3yT4NtCFrbVrK-183">
          <mxGeometry x="0.4299" width="46" height="40" relative="1" as="geometry">
            <mxPoint y="146" as="offset" />
          </mxGeometry>
        </mxCell>
        <mxCell id="qs-GRtZ3yT4NtCFrbVrK-193" value="T" style="text;verticalAlign=middle;align=center;fontColor=#cccccc;resizeWidth=1;whiteSpace=wrap;html=1;" vertex="1" parent="qs-GRtZ3yT4NtCFrbVrK-183">
          <mxGeometry x="0.5701" width="46" height="40" relative="1" as="geometry">
            <mxPoint y="146" as="offset" />
          </mxGeometry>
        </mxCell>
        <mxCell id="qs-GRtZ3yT4NtCFrbVrK-194" value="F" style="text;verticalAlign=middle;align=center;fontColor=#cccccc;resizeWidth=1;whiteSpace=wrap;html=1;" vertex="1" parent="qs-GRtZ3yT4NtCFrbVrK-183">
          <mxGeometry x="0.7104" width="46" height="40" relative="1" as="geometry">
            <mxPoint y="146" as="offset" />
          </mxGeometry>
        </mxCell>
        <mxCell id="qs-GRtZ3yT4NtCFrbVrK-195" value="S" style="text;verticalAlign=middle;align=center;fontColor=#cccccc;resizeWidth=1;whiteSpace=wrap;html=1;" vertex="1" parent="qs-GRtZ3yT4NtCFrbVrK-183">
          <mxGeometry x="0.8506" width="49" height="40" relative="1" as="geometry">
            <mxPoint y="146" as="offset" />
          </mxGeometry>
        </mxCell>
        <mxCell id="qs-GRtZ3yT4NtCFrbVrK-196" value="1" style="text;verticalAlign=middle;align=center;fontColor=#ffffff;resizeWidth=1;whiteSpace=wrap;html=1;" vertex="1" parent="qs-GRtZ3yT4NtCFrbVrK-183">
          <mxGeometry x="0.8506" width="49" height="40" relative="1" as="geometry">
            <mxPoint y="186" as="offset" />
          </mxGeometry>
        </mxCell>
        <mxCell id="qs-GRtZ3yT4NtCFrbVrK-197" value="2" style="text;verticalAlign=middle;align=center;fontColor=#ffffff;resizeWidth=1;whiteSpace=wrap;html=1;" vertex="1" parent="qs-GRtZ3yT4NtCFrbVrK-183">
          <mxGeometry width="49" height="40" relative="1" as="geometry">
            <mxPoint y="226" as="offset" />
          </mxGeometry>
        </mxCell>
        <mxCell id="qs-GRtZ3yT4NtCFrbVrK-198" value="3" style="text;verticalAlign=middle;align=center;fontColor=#ffffff;resizeWidth=1;whiteSpace=wrap;html=1;" vertex="1" parent="qs-GRtZ3yT4NtCFrbVrK-183">
          <mxGeometry x="0.1463" width="46" height="40" relative="1" as="geometry">
            <mxPoint y="226" as="offset" />
          </mxGeometry>
        </mxCell>
        <mxCell id="qs-GRtZ3yT4NtCFrbVrK-199" value="4" style="text;verticalAlign=middle;align=center;fontColor=#ffffff;resizeWidth=1;whiteSpace=wrap;html=1;" vertex="1" parent="qs-GRtZ3yT4NtCFrbVrK-183">
          <mxGeometry x="0.2896" width="46" height="40" relative="1" as="geometry">
            <mxPoint y="226" as="offset" />
          </mxGeometry>
        </mxCell>
        <mxCell id="qs-GRtZ3yT4NtCFrbVrK-200" value="5" style="text;verticalAlign=middle;align=center;fontColor=#ffffff;resizeWidth=1;whiteSpace=wrap;html=1;" vertex="1" parent="qs-GRtZ3yT4NtCFrbVrK-183">
          <mxGeometry x="0.4299" width="46" height="40" relative="1" as="geometry">
            <mxPoint y="226" as="offset" />
          </mxGeometry>
        </mxCell>
        <mxCell id="qs-GRtZ3yT4NtCFrbVrK-201" value="6" style="text;verticalAlign=middle;align=center;fontColor=#ffffff;resizeWidth=1;whiteSpace=wrap;html=1;" vertex="1" parent="qs-GRtZ3yT4NtCFrbVrK-183">
          <mxGeometry x="0.5701" width="46" height="40" relative="1" as="geometry">
            <mxPoint y="226" as="offset" />
          </mxGeometry>
        </mxCell>
        <mxCell id="qs-GRtZ3yT4NtCFrbVrK-202" value="7" style="text;verticalAlign=middle;align=center;fontColor=#80CBC4;resizeWidth=1;whiteSpace=wrap;html=1;" vertex="1" parent="qs-GRtZ3yT4NtCFrbVrK-183">
          <mxGeometry x="0.7104" width="46" height="40" relative="1" as="geometry">
            <mxPoint y="226" as="offset" />
          </mxGeometry>
        </mxCell>
        <mxCell id="qs-GRtZ3yT4NtCFrbVrK-203" value="8" style="text;verticalAlign=middle;align=center;fontColor=#ffffff;resizeWidth=1;whiteSpace=wrap;html=1;" vertex="1" parent="qs-GRtZ3yT4NtCFrbVrK-183">
          <mxGeometry x="0.8506" width="49" height="40" relative="1" as="geometry">
            <mxPoint y="226" as="offset" />
          </mxGeometry>
        </mxCell>
        <mxCell id="qs-GRtZ3yT4NtCFrbVrK-204" value="9" style="text;verticalAlign=middle;align=center;fontColor=#ffffff;resizeWidth=1;whiteSpace=wrap;html=1;" vertex="1" parent="qs-GRtZ3yT4NtCFrbVrK-183">
          <mxGeometry width="49" height="40" relative="1" as="geometry">
            <mxPoint y="266" as="offset" />
          </mxGeometry>
        </mxCell>
        <mxCell id="qs-GRtZ3yT4NtCFrbVrK-205" value="10" style="text;verticalAlign=middle;align=center;fontColor=#ffffff;resizeWidth=1;whiteSpace=wrap;html=1;" vertex="1" parent="qs-GRtZ3yT4NtCFrbVrK-183">
          <mxGeometry x="0.1463" width="46" height="40" relative="1" as="geometry">
            <mxPoint y="266" as="offset" />
          </mxGeometry>
        </mxCell>
        <mxCell id="qs-GRtZ3yT4NtCFrbVrK-206" value="11" style="text;verticalAlign=middle;align=center;fontColor=#ffffff;resizeWidth=1;whiteSpace=wrap;html=1;" vertex="1" parent="qs-GRtZ3yT4NtCFrbVrK-183">
          <mxGeometry x="0.2896" width="46" height="40" relative="1" as="geometry">
            <mxPoint y="266" as="offset" />
          </mxGeometry>
        </mxCell>
        <mxCell id="qs-GRtZ3yT4NtCFrbVrK-207" value="12" style="text;verticalAlign=middle;align=center;fontColor=#ffffff;resizeWidth=1;whiteSpace=wrap;html=1;" vertex="1" parent="qs-GRtZ3yT4NtCFrbVrK-183">
          <mxGeometry x="0.4299" width="46" height="40" relative="1" as="geometry">
            <mxPoint y="266" as="offset" />
          </mxGeometry>
        </mxCell>
        <mxCell id="qs-GRtZ3yT4NtCFrbVrK-208" value="13" style="shape=ellipse;fillColor=#80CBC4;strokeColor=none;verticalAlign=middle;align=center;fontColor=#424242;fontStyle=1;whiteSpace=wrap;html=1;" vertex="1" parent="qs-GRtZ3yT4NtCFrbVrK-183">
          <mxGeometry x="0.6402" width="40" height="40" relative="1" as="geometry">
            <mxPoint x="-20" y="266" as="offset" />
          </mxGeometry>
        </mxCell>
        <mxCell id="qs-GRtZ3yT4NtCFrbVrK-209" value="14" style="text;verticalAlign=middle;align=center;fontColor=#ffffff;resizeWidth=1;whiteSpace=wrap;html=1;" vertex="1" parent="qs-GRtZ3yT4NtCFrbVrK-183">
          <mxGeometry x="0.7104" width="46" height="40" relative="1" as="geometry">
            <mxPoint y="266" as="offset" />
          </mxGeometry>
        </mxCell>
        <mxCell id="qs-GRtZ3yT4NtCFrbVrK-210" value="15" style="text;verticalAlign=middle;align=center;fontColor=#ffffff;resizeWidth=1;whiteSpace=wrap;html=1;" vertex="1" parent="qs-GRtZ3yT4NtCFrbVrK-183">
          <mxGeometry x="0.8506" width="49" height="40" relative="1" as="geometry">
            <mxPoint y="266" as="offset" />
          </mxGeometry>
        </mxCell>
        <mxCell id="qs-GRtZ3yT4NtCFrbVrK-211" value="16" style="text;verticalAlign=middle;align=center;fontColor=#ffffff;resizeWidth=1;whiteSpace=wrap;html=1;" vertex="1" parent="qs-GRtZ3yT4NtCFrbVrK-183">
          <mxGeometry width="49" height="40" relative="1" as="geometry">
            <mxPoint y="306" as="offset" />
          </mxGeometry>
        </mxCell>
        <mxCell id="qs-GRtZ3yT4NtCFrbVrK-212" value="17" style="text;verticalAlign=middle;align=center;fontColor=#ffffff;resizeWidth=1;whiteSpace=wrap;html=1;" vertex="1" parent="qs-GRtZ3yT4NtCFrbVrK-183">
          <mxGeometry x="0.1463" width="46" height="40" relative="1" as="geometry">
            <mxPoint y="306" as="offset" />
          </mxGeometry>
        </mxCell>
        <mxCell id="qs-GRtZ3yT4NtCFrbVrK-213" value="18" style="text;verticalAlign=middle;align=center;fontColor=#ffffff;resizeWidth=1;whiteSpace=wrap;html=1;" vertex="1" parent="qs-GRtZ3yT4NtCFrbVrK-183">
          <mxGeometry x="0.2896" width="46" height="40" relative="1" as="geometry">
            <mxPoint y="306" as="offset" />
          </mxGeometry>
        </mxCell>
        <mxCell id="qs-GRtZ3yT4NtCFrbVrK-214" value="19" style="text;verticalAlign=middle;align=center;fontColor=#ffffff;resizeWidth=1;whiteSpace=wrap;html=1;" vertex="1" parent="qs-GRtZ3yT4NtCFrbVrK-183">
          <mxGeometry x="0.4299" width="46" height="40" relative="1" as="geometry">
            <mxPoint y="306" as="offset" />
          </mxGeometry>
        </mxCell>
        <mxCell id="qs-GRtZ3yT4NtCFrbVrK-215" value="20" style="text;verticalAlign=middle;align=center;fontColor=#ffffff;resizeWidth=1;whiteSpace=wrap;html=1;" vertex="1" parent="qs-GRtZ3yT4NtCFrbVrK-183">
          <mxGeometry x="0.5701" width="46" height="40" relative="1" as="geometry">
            <mxPoint y="306" as="offset" />
          </mxGeometry>
        </mxCell>
        <mxCell id="qs-GRtZ3yT4NtCFrbVrK-216" value="21" style="text;verticalAlign=middle;align=center;fontColor=#ffffff;resizeWidth=1;whiteSpace=wrap;html=1;" vertex="1" parent="qs-GRtZ3yT4NtCFrbVrK-183">
          <mxGeometry x="0.7104" width="46" height="40" relative="1" as="geometry">
            <mxPoint y="306" as="offset" />
          </mxGeometry>
        </mxCell>
        <mxCell id="qs-GRtZ3yT4NtCFrbVrK-217" value="22" style="text;verticalAlign=middle;align=center;fontColor=#ffffff;resizeWidth=1;whiteSpace=wrap;html=1;" vertex="1" parent="qs-GRtZ3yT4NtCFrbVrK-183">
          <mxGeometry x="0.8506" width="49" height="40" relative="1" as="geometry">
            <mxPoint y="306" as="offset" />
          </mxGeometry>
        </mxCell>
        <mxCell id="qs-GRtZ3yT4NtCFrbVrK-218" value="23" style="text;verticalAlign=middle;align=center;fontColor=#ffffff;resizeWidth=1;whiteSpace=wrap;html=1;" vertex="1" parent="qs-GRtZ3yT4NtCFrbVrK-183">
          <mxGeometry width="49" height="40" relative="1" as="geometry">
            <mxPoint y="346" as="offset" />
          </mxGeometry>
        </mxCell>
        <mxCell id="qs-GRtZ3yT4NtCFrbVrK-219" value="24" style="text;verticalAlign=middle;align=center;fontColor=#ffffff;resizeWidth=1;whiteSpace=wrap;html=1;" vertex="1" parent="qs-GRtZ3yT4NtCFrbVrK-183">
          <mxGeometry x="0.1463" width="46" height="40" relative="1" as="geometry">
            <mxPoint y="346" as="offset" />
          </mxGeometry>
        </mxCell>
        <mxCell id="qs-GRtZ3yT4NtCFrbVrK-220" value="25" style="text;verticalAlign=middle;align=center;fontColor=#ffffff;resizeWidth=1;whiteSpace=wrap;html=1;" vertex="1" parent="qs-GRtZ3yT4NtCFrbVrK-183">
          <mxGeometry x="0.2896" width="46" height="40" relative="1" as="geometry">
            <mxPoint y="346" as="offset" />
          </mxGeometry>
        </mxCell>
        <mxCell id="qs-GRtZ3yT4NtCFrbVrK-221" value="26" style="text;verticalAlign=middle;align=center;fontColor=#ffffff;resizeWidth=1;whiteSpace=wrap;html=1;" vertex="1" parent="qs-GRtZ3yT4NtCFrbVrK-183">
          <mxGeometry x="0.4299" width="46" height="40" relative="1" as="geometry">
            <mxPoint y="346" as="offset" />
          </mxGeometry>
        </mxCell>
        <mxCell id="qs-GRtZ3yT4NtCFrbVrK-222" value="27" style="text;verticalAlign=middle;align=center;fontColor=#ffffff;resizeWidth=1;whiteSpace=wrap;html=1;" vertex="1" parent="qs-GRtZ3yT4NtCFrbVrK-183">
          <mxGeometry x="0.5701" width="46" height="40" relative="1" as="geometry">
            <mxPoint y="346" as="offset" />
          </mxGeometry>
        </mxCell>
        <mxCell id="qs-GRtZ3yT4NtCFrbVrK-223" value="28" style="text;verticalAlign=middle;align=center;fontColor=#ffffff;resizeWidth=1;whiteSpace=wrap;html=1;" vertex="1" parent="qs-GRtZ3yT4NtCFrbVrK-183">
          <mxGeometry x="0.7104" width="46" height="40" relative="1" as="geometry">
            <mxPoint y="346" as="offset" />
          </mxGeometry>
        </mxCell>
        <mxCell id="qs-GRtZ3yT4NtCFrbVrK-224" value="29" style="text;verticalAlign=middle;align=center;fontColor=#ffffff;resizeWidth=1;whiteSpace=wrap;html=1;" vertex="1" parent="qs-GRtZ3yT4NtCFrbVrK-183">
          <mxGeometry x="0.8506" width="49" height="40" relative="1" as="geometry">
            <mxPoint y="346" as="offset" />
          </mxGeometry>
        </mxCell>
        <mxCell id="qs-GRtZ3yT4NtCFrbVrK-225" value="30" style="text;verticalAlign=middle;align=center;fontColor=#ffffff;resizeWidth=1;whiteSpace=wrap;html=1;" vertex="1" parent="qs-GRtZ3yT4NtCFrbVrK-183">
          <mxGeometry width="49" height="40" relative="1" as="geometry">
            <mxPoint y="386" as="offset" />
          </mxGeometry>
        </mxCell>
        <mxCell id="qs-GRtZ3yT4NtCFrbVrK-226" value="CANCEL" style="text;fontSize=13;fontColor=#80CBC4;spacingTop=0;whiteSpace=wrap;spacing=0;verticalAlign=middle;align=center;fontStyle=1;html=1;" vertex="1" parent="qs-GRtZ3yT4NtCFrbVrK-183">
          <mxGeometry x="1" y="1" width="70" height="50" relative="1" as="geometry">
            <mxPoint x="-160" y="-50" as="offset" />
          </mxGeometry>
        </mxCell>
        <mxCell id="qs-GRtZ3yT4NtCFrbVrK-227" value="OK" style="text;fontSize=13;fontColor=#80CBC4;spacingTop=0;whiteSpace=wrap;spacing=0;verticalAlign=middle;align=center;fontStyle=1;html=1;" vertex="1" parent="qs-GRtZ3yT4NtCFrbVrK-183">
          <mxGeometry x="1" y="1" width="90" height="50" relative="1" as="geometry">
            <mxPoint x="-90" y="-50" as="offset" />
          </mxGeometry>
        </mxCell>
        <mxCell id="qs-GRtZ3yT4NtCFrbVrK-228" value="" style="rounded=0;whiteSpace=wrap;html=1;" vertex="1" parent="1">
          <mxGeometry x="1700" y="360" width="370" height="40" as="geometry" />
        </mxCell>
        <mxCell id="qs-GRtZ3yT4NtCFrbVrK-229" value="&lt;h1&gt;&lt;font face=&quot;Times New Roman&quot;&gt;Motivo de consulta&lt;/font&gt;&lt;/h1&gt;" style="text;html=1;align=center;verticalAlign=middle;whiteSpace=wrap;rounded=0;" vertex="1" parent="1">
          <mxGeometry x="1430" y="365" width="240" height="30" as="geometry" />
        </mxCell>
        <mxCell id="qs-GRtZ3yT4NtCFrbVrK-230" value="" style="rounded=0;whiteSpace=wrap;html=1;" vertex="1" parent="1">
          <mxGeometry x="1710" y="450" width="360" height="40" as="geometry" />
        </mxCell>
        <mxCell id="qs-GRtZ3yT4NtCFrbVrK-231" value="&lt;h1&gt;&lt;font face=&quot;Times New Roman&quot;&gt;Tratamiento&lt;/font&gt;&lt;/h1&gt;" style="text;html=1;align=center;verticalAlign=middle;whiteSpace=wrap;rounded=0;" vertex="1" parent="1">
          <mxGeometry x="1440" y="455" width="240" height="30" as="geometry" />
        </mxCell>
        <mxCell id="qs-GRtZ3yT4NtCFrbVrK-232" value="" style="rounded=0;whiteSpace=wrap;html=1;" vertex="1" parent="1">
          <mxGeometry x="1710" y="557.5" width="360" height="40" as="geometry" />
        </mxCell>
        <mxCell id="qs-GRtZ3yT4NtCFrbVrK-233" value="&lt;h1&gt;&lt;font face=&quot;Times New Roman&quot;&gt;Observaciones&lt;/font&gt;&lt;/h1&gt;" style="text;html=1;align=center;verticalAlign=middle;whiteSpace=wrap;rounded=0;" vertex="1" parent="1">
          <mxGeometry x="1440" y="562.5" width="240" height="30" as="geometry" />
        </mxCell>
        <mxCell id="qs-GRtZ3yT4NtCFrbVrK-234" value="" style="group" vertex="1" connectable="0" parent="1">
          <mxGeometry x="1507.5" y="1430" width="550" height="94" as="geometry" />
        </mxCell>
        <mxCell id="qs-GRtZ3yT4NtCFrbVrK-235" value="" style="rounded=0;whiteSpace=wrap;html=1;" vertex="1" parent="qs-GRtZ3yT4NtCFrbVrK-234">
          <mxGeometry width="550" height="94" as="geometry" />
        </mxCell>
        <mxCell id="qs-GRtZ3yT4NtCFrbVrK-236" value="&lt;h1&gt;&lt;font face=&quot;Times New Roman&quot;&gt;&lt;span style=&quot;font-size: 42px;&quot;&gt;Agendar Cita&lt;/span&gt;&lt;/font&gt;&lt;/h1&gt;" style="text;html=1;align=center;verticalAlign=middle;whiteSpace=wrap;rounded=0;" vertex="1" parent="qs-GRtZ3yT4NtCFrbVrK-234">
          <mxGeometry y="2" width="550" height="90" as="geometry" />
        </mxCell>
        <mxCell id="qs-GRtZ3yT4NtCFrbVrK-237" value="" style="group" vertex="1" connectable="0" parent="1">
          <mxGeometry x="1250" y="1430" width="87.5" height="115" as="geometry" />
        </mxCell>
        <mxCell id="qs-GRtZ3yT4NtCFrbVrK-238" value="" style="ellipse;whiteSpace=wrap;html=1;aspect=fixed;" vertex="1" parent="qs-GRtZ3yT4NtCFrbVrK-237">
          <mxGeometry x="1.25" width="85" height="85" as="geometry" />
        </mxCell>
        <mxCell id="qs-GRtZ3yT4NtCFrbVrK-239" value="" style="shape=actor;whiteSpace=wrap;html=1;" vertex="1" parent="qs-GRtZ3yT4NtCFrbVrK-237">
          <mxGeometry x="18.75" y="11" width="50" height="60" as="geometry" />
        </mxCell>
        <mxCell id="qs-GRtZ3yT4NtCFrbVrK-240" value="Dr. Rodriguez" style="text;html=1;align=center;verticalAlign=middle;whiteSpace=wrap;rounded=0;" vertex="1" parent="qs-GRtZ3yT4NtCFrbVrK-237">
          <mxGeometry y="85" width="87.5" height="30" as="geometry" />
        </mxCell>
        <mxCell id="qs-GRtZ3yT4NtCFrbVrK-241" value="" style="rounded=0;whiteSpace=wrap;html=1;" vertex="1" parent="1">
          <mxGeometry x="1737.5" y="1670" width="360" height="40" as="geometry" />
        </mxCell>
        <mxCell id="qs-GRtZ3yT4NtCFrbVrK-242" value="&lt;h1&gt;&lt;font face=&quot;Times New Roman&quot;&gt;Nombre del paciente&lt;/font&gt;&lt;/h1&gt;" style="text;html=1;align=center;verticalAlign=middle;whiteSpace=wrap;rounded=0;" vertex="1" parent="1">
          <mxGeometry x="1467.5" y="1675" width="240" height="30" as="geometry" />
        </mxCell>
        <mxCell id="qs-GRtZ3yT4NtCFrbVrK-243" value="&lt;h1&gt;&lt;font face=&quot;Times New Roman&quot;&gt;Hora agendada&lt;/font&gt;&lt;/h1&gt;" style="text;html=1;align=center;verticalAlign=middle;whiteSpace=wrap;rounded=0;" vertex="1" parent="1">
          <mxGeometry x="1421.5" y="1910" width="240" height="30" as="geometry" />
        </mxCell>
        <mxCell id="qs-GRtZ3yT4NtCFrbVrK-244" value="&lt;h1&gt;&lt;font face=&quot;Times New Roman&quot;&gt;Fecha agendada&lt;/font&gt;&lt;/h1&gt;" style="text;html=1;align=center;verticalAlign=middle;whiteSpace=wrap;rounded=0;" vertex="1" parent="1">
          <mxGeometry x="1991.5" y="1910" width="240" height="30" as="geometry" />
        </mxCell>
        <mxCell id="qs-GRtZ3yT4NtCFrbVrK-245" value="" style="shape=rect;fillColor=#424242;strokeColor=none;shadow=1;aspect=fixed;" vertex="1" parent="1">
          <mxGeometry x="1310" y="1971" width="512" height="304" as="geometry" />
        </mxCell>
        <mxCell id="qs-GRtZ3yT4NtCFrbVrK-246" value="3:30" style="shape=rect;fillColor=#555555;fontColor=#ffffff;strokeColor=none;align=center;spacing=0;fontSize=52;verticalAlign=middle;spacingBottom=54;spacingLeft=16;whiteSpace=wrap;html=1;" vertex="1" parent="qs-GRtZ3yT4NtCFrbVrK-245">
          <mxGeometry width="168" height="304" as="geometry" />
        </mxCell>
        <mxCell id="qs-GRtZ3yT4NtCFrbVrK-247" value="AM" style="text;verticalAlign=middle;align=center;fontColor=#ffffff;fontSize=17;fontStyle=0;textOpacity=70;html=1;whiteSpace=wrap;" vertex="1" parent="qs-GRtZ3yT4NtCFrbVrK-246">
          <mxGeometry y="146" width="168" height="40" as="geometry" />
        </mxCell>
        <mxCell id="qs-GRtZ3yT4NtCFrbVrK-248" value="PM" style="text;verticalAlign=middle;align=center;fontColor=#ffffff;fontSize=17;html=1;whiteSpace=wrap;" vertex="1" parent="qs-GRtZ3yT4NtCFrbVrK-246">
          <mxGeometry y="170" width="168" height="40" as="geometry" />
        </mxCell>
        <mxCell id="qs-GRtZ3yT4NtCFrbVrK-249" value="" style="shape=ellipse;fillColor=#555555;strokeColor=none;whiteSpace=wrap;html=1;" vertex="1" parent="qs-GRtZ3yT4NtCFrbVrK-245">
          <mxGeometry x="228" y="16" width="224" height="224" as="geometry" />
        </mxCell>
        <mxCell id="qs-GRtZ3yT4NtCFrbVrK-250" value="3" style="dashed=0;shape=mxgraph.gmdl.time_picker;fillColor=#80CBC4;strokeColor=#80CBC4;verticalAlign=middle;align=right;fontColor=#555555;strokeWidth=2;spacingRight=9;fontSize=15;fontStyle=1;whiteSpace=wrap;html=1;" vertex="1" parent="qs-GRtZ3yT4NtCFrbVrK-249">
          <mxGeometry x="110" y="100" width="108" height="30" as="geometry" />
        </mxCell>
        <mxCell id="qs-GRtZ3yT4NtCFrbVrK-251" value="1" style="text;verticalAlign=middle;align=center;fontColor=#ffffff;fontSize=15;whiteSpace=wrap;html=1;" vertex="1" parent="qs-GRtZ3yT4NtCFrbVrK-245">
          <mxGeometry x="355" y="30" width="49" height="40" as="geometry" />
        </mxCell>
        <mxCell id="qs-GRtZ3yT4NtCFrbVrK-252" value="2" style="text;verticalAlign=middle;align=center;fontColor=#ffffff;fontSize=15;whiteSpace=wrap;html=1;" vertex="1" parent="qs-GRtZ3yT4NtCFrbVrK-245">
          <mxGeometry x="392" y="63" width="49" height="40" as="geometry" />
        </mxCell>
        <mxCell id="qs-GRtZ3yT4NtCFrbVrK-253" value="4" style="text;verticalAlign=middle;align=center;fontColor=#ffffff;fontSize=15;whiteSpace=wrap;html=1;" vertex="1" parent="qs-GRtZ3yT4NtCFrbVrK-245">
          <mxGeometry x="394" y="150" width="46" height="40" as="geometry" />
        </mxCell>
        <mxCell id="qs-GRtZ3yT4NtCFrbVrK-254" value="5" style="text;verticalAlign=middle;align=center;fontColor=#ffffff;fontSize=15;whiteSpace=wrap;html=1;" vertex="1" parent="qs-GRtZ3yT4NtCFrbVrK-245">
          <mxGeometry x="358" y="186" width="46" height="40" as="geometry" />
        </mxCell>
        <mxCell id="qs-GRtZ3yT4NtCFrbVrK-255" value="6" style="text;verticalAlign=middle;align=center;fontColor=#ffffff;fontSize=15;whiteSpace=wrap;html=1;" vertex="1" parent="qs-GRtZ3yT4NtCFrbVrK-245">
          <mxGeometry x="315" y="200" width="46" height="40" as="geometry" />
        </mxCell>
        <mxCell id="qs-GRtZ3yT4NtCFrbVrK-256" value="7" style="text;verticalAlign=middle;align=center;fontColor=#ffffff;fontSize=15;whiteSpace=wrap;html=1;" vertex="1" parent="qs-GRtZ3yT4NtCFrbVrK-245">
          <mxGeometry x="271" y="186" width="46" height="40" as="geometry" />
        </mxCell>
        <mxCell id="qs-GRtZ3yT4NtCFrbVrK-257" value="8" style="text;verticalAlign=middle;align=center;fontColor=#ffffff;fontSize=15;whiteSpace=wrap;html=1;" vertex="1" parent="qs-GRtZ3yT4NtCFrbVrK-245">
          <mxGeometry x="236" y="150" width="49" height="40" as="geometry" />
        </mxCell>
        <mxCell id="qs-GRtZ3yT4NtCFrbVrK-258" value="9" style="text;verticalAlign=middle;align=center;fontColor=#ffffff;fontSize=15;whiteSpace=wrap;html=1;" vertex="1" parent="qs-GRtZ3yT4NtCFrbVrK-245">
          <mxGeometry x="221" y="108" width="49" height="40" as="geometry" />
        </mxCell>
        <mxCell id="qs-GRtZ3yT4NtCFrbVrK-259" value="10" style="text;verticalAlign=middle;align=center;fontColor=#ffffff;fontSize=15;whiteSpace=wrap;html=1;" vertex="1" parent="qs-GRtZ3yT4NtCFrbVrK-245">
          <mxGeometry x="238" y="63" width="46" height="40" as="geometry" />
        </mxCell>
        <mxCell id="qs-GRtZ3yT4NtCFrbVrK-260" value="11" style="text;verticalAlign=middle;align=center;fontColor=#ffffff;fontSize=15;whiteSpace=wrap;html=1;" vertex="1" parent="qs-GRtZ3yT4NtCFrbVrK-245">
          <mxGeometry x="271" y="30" width="46" height="40" as="geometry" />
        </mxCell>
        <mxCell id="qs-GRtZ3yT4NtCFrbVrK-261" value="12" style="text;verticalAlign=middle;align=center;fontColor=#ffffff;fontSize=15;whiteSpace=wrap;html=1;" vertex="1" parent="qs-GRtZ3yT4NtCFrbVrK-245">
          <mxGeometry x="315" y="16" width="46" height="40" as="geometry" />
        </mxCell>
        <mxCell id="qs-GRtZ3yT4NtCFrbVrK-262" value="CANCEL" style="text;fontSize=13;fontColor=#80CBC4;spacingTop=0;whiteSpace=wrap;spacing=0;verticalAlign=middle;align=center;fontStyle=1;html=1;" vertex="1" parent="qs-GRtZ3yT4NtCFrbVrK-245">
          <mxGeometry x="1" y="1" width="70" height="50" relative="1" as="geometry">
            <mxPoint x="-160" y="-50" as="offset" />
          </mxGeometry>
        </mxCell>
        <mxCell id="qs-GRtZ3yT4NtCFrbVrK-263" value="OK" style="text;fontSize=13;fontColor=#80CBC4;spacingTop=0;whiteSpace=wrap;spacing=0;verticalAlign=middle;align=center;fontStyle=1;html=1;" vertex="1" parent="qs-GRtZ3yT4NtCFrbVrK-245">
          <mxGeometry x="1" y="1" width="90" height="50" relative="1" as="geometry">
            <mxPoint x="-90" y="-50" as="offset" />
          </mxGeometry>
        </mxCell>
        <mxCell id="qs-GRtZ3yT4NtCFrbVrK-264" value="" style="shape=rect;fillColor=#424242;strokeColor=#eeeeee;shadow=1;" vertex="1" parent="1">
          <mxGeometry x="1947.5" y="1961" width="328" height="484" as="geometry" />
        </mxCell>
        <mxCell id="qs-GRtZ3yT4NtCFrbVrK-265" value="Thu, Apr 13" style="shape=rect;fillColor=#555555;fontColor=#ffffff;strokeColor=none;align=left;spacing=16;fontSize=33;verticalAlign=bottom;resizeWidth=1;whiteSpace=wrap;html=1;spacingBottom=-6;" vertex="1" parent="qs-GRtZ3yT4NtCFrbVrK-264">
          <mxGeometry width="328" height="96" relative="1" as="geometry" />
        </mxCell>
        <mxCell id="qs-GRtZ3yT4NtCFrbVrK-266" value="2017" style="text;verticalAlign=middle;fontColor=#FFFFFF;spacingTop=6;spacing=16;fontSize=15;textOpacity=70;resizeWidth=1;whiteSpace=wrap;html=1;" vertex="1" parent="qs-GRtZ3yT4NtCFrbVrK-265">
          <mxGeometry width="328" height="40" relative="1" as="geometry" />
        </mxCell>
        <mxCell id="qs-GRtZ3yT4NtCFrbVrK-267" value="&lt;" style="text;verticalAlign=middle;fontColor=#ffffff;spacingTop=6;spacing=16;fontSize=20;align=center;resizeWidth=1;" vertex="1" parent="qs-GRtZ3yT4NtCFrbVrK-264">
          <mxGeometry width="48" height="40" relative="1" as="geometry">
            <mxPoint y="96" as="offset" />
          </mxGeometry>
        </mxCell>
        <mxCell id="qs-GRtZ3yT4NtCFrbVrK-268" value="April 2017" style="text;verticalAlign=middle;fontColor=#ffffff;spacingTop=6;spacing=16;fontSize=13;align=center;fontStyle=1;resizeWidth=1;whiteSpace=wrap;html=1;" vertex="1" parent="qs-GRtZ3yT4NtCFrbVrK-264">
          <mxGeometry x="0.1463" width="232" height="40" relative="1" as="geometry">
            <mxPoint y="96" as="offset" />
          </mxGeometry>
        </mxCell>
        <mxCell id="qs-GRtZ3yT4NtCFrbVrK-269" value="&gt;" style="text;verticalAlign=middle;fontColor=#ffffff;spacingTop=6;spacing=16;fontSize=20;align=center;resizeWidth=1;" vertex="1" parent="qs-GRtZ3yT4NtCFrbVrK-264">
          <mxGeometry x="0.8537" width="48" height="40" relative="1" as="geometry">
            <mxPoint y="96" as="offset" />
          </mxGeometry>
        </mxCell>
        <mxCell id="qs-GRtZ3yT4NtCFrbVrK-270" value="S" style="text;verticalAlign=middle;align=center;fontColor=#cccccc;resizeWidth=1;whiteSpace=wrap;html=1;" vertex="1" parent="qs-GRtZ3yT4NtCFrbVrK-264">
          <mxGeometry width="49" height="40" relative="1" as="geometry">
            <mxPoint y="146" as="offset" />
          </mxGeometry>
        </mxCell>
        <mxCell id="qs-GRtZ3yT4NtCFrbVrK-271" value="M" style="text;verticalAlign=middle;align=center;fontColor=#cccccc;resizeWidth=1;whiteSpace=wrap;html=1;" vertex="1" parent="qs-GRtZ3yT4NtCFrbVrK-264">
          <mxGeometry x="0.1463" width="46" height="40" relative="1" as="geometry">
            <mxPoint y="146" as="offset" />
          </mxGeometry>
        </mxCell>
        <mxCell id="qs-GRtZ3yT4NtCFrbVrK-272" value="T" style="text;verticalAlign=middle;align=center;fontColor=#cccccc;resizeWidth=1;whiteSpace=wrap;html=1;" vertex="1" parent="qs-GRtZ3yT4NtCFrbVrK-264">
          <mxGeometry x="0.2896" width="46" height="40" relative="1" as="geometry">
            <mxPoint y="146" as="offset" />
          </mxGeometry>
        </mxCell>
        <mxCell id="qs-GRtZ3yT4NtCFrbVrK-273" value="W" style="text;verticalAlign=middle;align=center;fontColor=#cccccc;resizeWidth=1;whiteSpace=wrap;html=1;" vertex="1" parent="qs-GRtZ3yT4NtCFrbVrK-264">
          <mxGeometry x="0.4299" width="46" height="40" relative="1" as="geometry">
            <mxPoint y="146" as="offset" />
          </mxGeometry>
        </mxCell>
        <mxCell id="qs-GRtZ3yT4NtCFrbVrK-274" value="T" style="text;verticalAlign=middle;align=center;fontColor=#cccccc;resizeWidth=1;whiteSpace=wrap;html=1;" vertex="1" parent="qs-GRtZ3yT4NtCFrbVrK-264">
          <mxGeometry x="0.5701" width="46" height="40" relative="1" as="geometry">
            <mxPoint y="146" as="offset" />
          </mxGeometry>
        </mxCell>
        <mxCell id="qs-GRtZ3yT4NtCFrbVrK-275" value="F" style="text;verticalAlign=middle;align=center;fontColor=#cccccc;resizeWidth=1;whiteSpace=wrap;html=1;" vertex="1" parent="qs-GRtZ3yT4NtCFrbVrK-264">
          <mxGeometry x="0.7104" width="46" height="40" relative="1" as="geometry">
            <mxPoint y="146" as="offset" />
          </mxGeometry>
        </mxCell>
        <mxCell id="qs-GRtZ3yT4NtCFrbVrK-276" value="S" style="text;verticalAlign=middle;align=center;fontColor=#cccccc;resizeWidth=1;whiteSpace=wrap;html=1;" vertex="1" parent="qs-GRtZ3yT4NtCFrbVrK-264">
          <mxGeometry x="0.8506" width="49" height="40" relative="1" as="geometry">
            <mxPoint y="146" as="offset" />
          </mxGeometry>
        </mxCell>
        <mxCell id="qs-GRtZ3yT4NtCFrbVrK-277" value="1" style="text;verticalAlign=middle;align=center;fontColor=#ffffff;resizeWidth=1;whiteSpace=wrap;html=1;" vertex="1" parent="qs-GRtZ3yT4NtCFrbVrK-264">
          <mxGeometry x="0.8506" width="49" height="40" relative="1" as="geometry">
            <mxPoint y="186" as="offset" />
          </mxGeometry>
        </mxCell>
        <mxCell id="qs-GRtZ3yT4NtCFrbVrK-278" value="2" style="text;verticalAlign=middle;align=center;fontColor=#ffffff;resizeWidth=1;whiteSpace=wrap;html=1;" vertex="1" parent="qs-GRtZ3yT4NtCFrbVrK-264">
          <mxGeometry width="49" height="40" relative="1" as="geometry">
            <mxPoint y="226" as="offset" />
          </mxGeometry>
        </mxCell>
        <mxCell id="qs-GRtZ3yT4NtCFrbVrK-279" value="3" style="text;verticalAlign=middle;align=center;fontColor=#ffffff;resizeWidth=1;whiteSpace=wrap;html=1;" vertex="1" parent="qs-GRtZ3yT4NtCFrbVrK-264">
          <mxGeometry x="0.1463" width="46" height="40" relative="1" as="geometry">
            <mxPoint y="226" as="offset" />
          </mxGeometry>
        </mxCell>
        <mxCell id="qs-GRtZ3yT4NtCFrbVrK-280" value="4" style="text;verticalAlign=middle;align=center;fontColor=#ffffff;resizeWidth=1;whiteSpace=wrap;html=1;" vertex="1" parent="qs-GRtZ3yT4NtCFrbVrK-264">
          <mxGeometry x="0.2896" width="46" height="40" relative="1" as="geometry">
            <mxPoint y="226" as="offset" />
          </mxGeometry>
        </mxCell>
        <mxCell id="qs-GRtZ3yT4NtCFrbVrK-281" value="5" style="text;verticalAlign=middle;align=center;fontColor=#ffffff;resizeWidth=1;whiteSpace=wrap;html=1;" vertex="1" parent="qs-GRtZ3yT4NtCFrbVrK-264">
          <mxGeometry x="0.4299" width="46" height="40" relative="1" as="geometry">
            <mxPoint y="226" as="offset" />
          </mxGeometry>
        </mxCell>
        <mxCell id="qs-GRtZ3yT4NtCFrbVrK-282" value="6" style="text;verticalAlign=middle;align=center;fontColor=#ffffff;resizeWidth=1;whiteSpace=wrap;html=1;" vertex="1" parent="qs-GRtZ3yT4NtCFrbVrK-264">
          <mxGeometry x="0.5701" width="46" height="40" relative="1" as="geometry">
            <mxPoint y="226" as="offset" />
          </mxGeometry>
        </mxCell>
        <mxCell id="qs-GRtZ3yT4NtCFrbVrK-283" value="7" style="text;verticalAlign=middle;align=center;fontColor=#80CBC4;resizeWidth=1;whiteSpace=wrap;html=1;" vertex="1" parent="qs-GRtZ3yT4NtCFrbVrK-264">
          <mxGeometry x="0.7104" width="46" height="40" relative="1" as="geometry">
            <mxPoint y="226" as="offset" />
          </mxGeometry>
        </mxCell>
        <mxCell id="qs-GRtZ3yT4NtCFrbVrK-284" value="8" style="text;verticalAlign=middle;align=center;fontColor=#ffffff;resizeWidth=1;whiteSpace=wrap;html=1;" vertex="1" parent="qs-GRtZ3yT4NtCFrbVrK-264">
          <mxGeometry x="0.8506" width="49" height="40" relative="1" as="geometry">
            <mxPoint y="226" as="offset" />
          </mxGeometry>
        </mxCell>
        <mxCell id="qs-GRtZ3yT4NtCFrbVrK-285" value="9" style="text;verticalAlign=middle;align=center;fontColor=#ffffff;resizeWidth=1;whiteSpace=wrap;html=1;" vertex="1" parent="qs-GRtZ3yT4NtCFrbVrK-264">
          <mxGeometry width="49" height="40" relative="1" as="geometry">
            <mxPoint y="266" as="offset" />
          </mxGeometry>
        </mxCell>
        <mxCell id="qs-GRtZ3yT4NtCFrbVrK-286" value="10" style="text;verticalAlign=middle;align=center;fontColor=#ffffff;resizeWidth=1;whiteSpace=wrap;html=1;" vertex="1" parent="qs-GRtZ3yT4NtCFrbVrK-264">
          <mxGeometry x="0.1463" width="46" height="40" relative="1" as="geometry">
            <mxPoint y="266" as="offset" />
          </mxGeometry>
        </mxCell>
        <mxCell id="qs-GRtZ3yT4NtCFrbVrK-287" value="11" style="text;verticalAlign=middle;align=center;fontColor=#ffffff;resizeWidth=1;whiteSpace=wrap;html=1;" vertex="1" parent="qs-GRtZ3yT4NtCFrbVrK-264">
          <mxGeometry x="0.2896" width="46" height="40" relative="1" as="geometry">
            <mxPoint y="266" as="offset" />
          </mxGeometry>
        </mxCell>
        <mxCell id="qs-GRtZ3yT4NtCFrbVrK-288" value="12" style="text;verticalAlign=middle;align=center;fontColor=#ffffff;resizeWidth=1;whiteSpace=wrap;html=1;" vertex="1" parent="qs-GRtZ3yT4NtCFrbVrK-264">
          <mxGeometry x="0.4299" width="46" height="40" relative="1" as="geometry">
            <mxPoint y="266" as="offset" />
          </mxGeometry>
        </mxCell>
        <mxCell id="qs-GRtZ3yT4NtCFrbVrK-289" value="13" style="shape=ellipse;fillColor=#80CBC4;strokeColor=none;verticalAlign=middle;align=center;fontColor=#424242;fontStyle=1;whiteSpace=wrap;html=1;" vertex="1" parent="qs-GRtZ3yT4NtCFrbVrK-264">
          <mxGeometry x="0.6402" width="40" height="40" relative="1" as="geometry">
            <mxPoint x="-20" y="266" as="offset" />
          </mxGeometry>
        </mxCell>
        <mxCell id="qs-GRtZ3yT4NtCFrbVrK-290" value="14" style="text;verticalAlign=middle;align=center;fontColor=#ffffff;resizeWidth=1;whiteSpace=wrap;html=1;" vertex="1" parent="qs-GRtZ3yT4NtCFrbVrK-264">
          <mxGeometry x="0.7104" width="46" height="40" relative="1" as="geometry">
            <mxPoint y="266" as="offset" />
          </mxGeometry>
        </mxCell>
        <mxCell id="qs-GRtZ3yT4NtCFrbVrK-291" value="15" style="text;verticalAlign=middle;align=center;fontColor=#ffffff;resizeWidth=1;whiteSpace=wrap;html=1;" vertex="1" parent="qs-GRtZ3yT4NtCFrbVrK-264">
          <mxGeometry x="0.8506" width="49" height="40" relative="1" as="geometry">
            <mxPoint y="266" as="offset" />
          </mxGeometry>
        </mxCell>
        <mxCell id="qs-GRtZ3yT4NtCFrbVrK-292" value="16" style="text;verticalAlign=middle;align=center;fontColor=#ffffff;resizeWidth=1;whiteSpace=wrap;html=1;" vertex="1" parent="qs-GRtZ3yT4NtCFrbVrK-264">
          <mxGeometry width="49" height="40" relative="1" as="geometry">
            <mxPoint y="306" as="offset" />
          </mxGeometry>
        </mxCell>
        <mxCell id="qs-GRtZ3yT4NtCFrbVrK-293" value="17" style="text;verticalAlign=middle;align=center;fontColor=#ffffff;resizeWidth=1;whiteSpace=wrap;html=1;" vertex="1" parent="qs-GRtZ3yT4NtCFrbVrK-264">
          <mxGeometry x="0.1463" width="46" height="40" relative="1" as="geometry">
            <mxPoint y="306" as="offset" />
          </mxGeometry>
        </mxCell>
        <mxCell id="qs-GRtZ3yT4NtCFrbVrK-294" value="18" style="text;verticalAlign=middle;align=center;fontColor=#ffffff;resizeWidth=1;whiteSpace=wrap;html=1;" vertex="1" parent="qs-GRtZ3yT4NtCFrbVrK-264">
          <mxGeometry x="0.2896" width="46" height="40" relative="1" as="geometry">
            <mxPoint y="306" as="offset" />
          </mxGeometry>
        </mxCell>
        <mxCell id="qs-GRtZ3yT4NtCFrbVrK-295" value="19" style="text;verticalAlign=middle;align=center;fontColor=#ffffff;resizeWidth=1;whiteSpace=wrap;html=1;" vertex="1" parent="qs-GRtZ3yT4NtCFrbVrK-264">
          <mxGeometry x="0.4299" width="46" height="40" relative="1" as="geometry">
            <mxPoint y="306" as="offset" />
          </mxGeometry>
        </mxCell>
        <mxCell id="qs-GRtZ3yT4NtCFrbVrK-296" value="20" style="text;verticalAlign=middle;align=center;fontColor=#ffffff;resizeWidth=1;whiteSpace=wrap;html=1;" vertex="1" parent="qs-GRtZ3yT4NtCFrbVrK-264">
          <mxGeometry x="0.5701" width="46" height="40" relative="1" as="geometry">
            <mxPoint y="306" as="offset" />
          </mxGeometry>
        </mxCell>
        <mxCell id="qs-GRtZ3yT4NtCFrbVrK-297" value="21" style="text;verticalAlign=middle;align=center;fontColor=#ffffff;resizeWidth=1;whiteSpace=wrap;html=1;" vertex="1" parent="qs-GRtZ3yT4NtCFrbVrK-264">
          <mxGeometry x="0.7104" width="46" height="40" relative="1" as="geometry">
            <mxPoint y="306" as="offset" />
          </mxGeometry>
        </mxCell>
        <mxCell id="qs-GRtZ3yT4NtCFrbVrK-298" value="22" style="text;verticalAlign=middle;align=center;fontColor=#ffffff;resizeWidth=1;whiteSpace=wrap;html=1;" vertex="1" parent="qs-GRtZ3yT4NtCFrbVrK-264">
          <mxGeometry x="0.8506" width="49" height="40" relative="1" as="geometry">
            <mxPoint y="306" as="offset" />
          </mxGeometry>
        </mxCell>
        <mxCell id="qs-GRtZ3yT4NtCFrbVrK-299" value="23" style="text;verticalAlign=middle;align=center;fontColor=#ffffff;resizeWidth=1;whiteSpace=wrap;html=1;" vertex="1" parent="qs-GRtZ3yT4NtCFrbVrK-264">
          <mxGeometry width="49" height="40" relative="1" as="geometry">
            <mxPoint y="346" as="offset" />
          </mxGeometry>
        </mxCell>
        <mxCell id="qs-GRtZ3yT4NtCFrbVrK-300" value="24" style="text;verticalAlign=middle;align=center;fontColor=#ffffff;resizeWidth=1;whiteSpace=wrap;html=1;" vertex="1" parent="qs-GRtZ3yT4NtCFrbVrK-264">
          <mxGeometry x="0.1463" width="46" height="40" relative="1" as="geometry">
            <mxPoint y="346" as="offset" />
          </mxGeometry>
        </mxCell>
        <mxCell id="qs-GRtZ3yT4NtCFrbVrK-301" value="25" style="text;verticalAlign=middle;align=center;fontColor=#ffffff;resizeWidth=1;whiteSpace=wrap;html=1;" vertex="1" parent="qs-GRtZ3yT4NtCFrbVrK-264">
          <mxGeometry x="0.2896" width="46" height="40" relative="1" as="geometry">
            <mxPoint y="346" as="offset" />
          </mxGeometry>
        </mxCell>
        <mxCell id="qs-GRtZ3yT4NtCFrbVrK-302" value="26" style="text;verticalAlign=middle;align=center;fontColor=#ffffff;resizeWidth=1;whiteSpace=wrap;html=1;" vertex="1" parent="qs-GRtZ3yT4NtCFrbVrK-264">
          <mxGeometry x="0.4299" width="46" height="40" relative="1" as="geometry">
            <mxPoint y="346" as="offset" />
          </mxGeometry>
        </mxCell>
        <mxCell id="qs-GRtZ3yT4NtCFrbVrK-303" value="27" style="text;verticalAlign=middle;align=center;fontColor=#ffffff;resizeWidth=1;whiteSpace=wrap;html=1;" vertex="1" parent="qs-GRtZ3yT4NtCFrbVrK-264">
          <mxGeometry x="0.5701" width="46" height="40" relative="1" as="geometry">
            <mxPoint y="346" as="offset" />
          </mxGeometry>
        </mxCell>
        <mxCell id="qs-GRtZ3yT4NtCFrbVrK-304" value="28" style="text;verticalAlign=middle;align=center;fontColor=#ffffff;resizeWidth=1;whiteSpace=wrap;html=1;" vertex="1" parent="qs-GRtZ3yT4NtCFrbVrK-264">
          <mxGeometry x="0.7104" width="46" height="40" relative="1" as="geometry">
            <mxPoint y="346" as="offset" />
          </mxGeometry>
        </mxCell>
        <mxCell id="qs-GRtZ3yT4NtCFrbVrK-305" value="29" style="text;verticalAlign=middle;align=center;fontColor=#ffffff;resizeWidth=1;whiteSpace=wrap;html=1;" vertex="1" parent="qs-GRtZ3yT4NtCFrbVrK-264">
          <mxGeometry x="0.8506" width="49" height="40" relative="1" as="geometry">
            <mxPoint y="346" as="offset" />
          </mxGeometry>
        </mxCell>
        <mxCell id="qs-GRtZ3yT4NtCFrbVrK-306" value="30" style="text;verticalAlign=middle;align=center;fontColor=#ffffff;resizeWidth=1;whiteSpace=wrap;html=1;" vertex="1" parent="qs-GRtZ3yT4NtCFrbVrK-264">
          <mxGeometry width="49" height="40" relative="1" as="geometry">
            <mxPoint y="386" as="offset" />
          </mxGeometry>
        </mxCell>
        <mxCell id="qs-GRtZ3yT4NtCFrbVrK-307" value="CANCEL" style="text;fontSize=13;fontColor=#80CBC4;spacingTop=0;whiteSpace=wrap;spacing=0;verticalAlign=middle;align=center;fontStyle=1;html=1;" vertex="1" parent="qs-GRtZ3yT4NtCFrbVrK-264">
          <mxGeometry x="1" y="1" width="70" height="50" relative="1" as="geometry">
            <mxPoint x="-160" y="-50" as="offset" />
          </mxGeometry>
        </mxCell>
        <mxCell id="qs-GRtZ3yT4NtCFrbVrK-308" value="OK" style="text;fontSize=13;fontColor=#80CBC4;spacingTop=0;whiteSpace=wrap;spacing=0;verticalAlign=middle;align=center;fontStyle=1;html=1;" vertex="1" parent="qs-GRtZ3yT4NtCFrbVrK-264">
          <mxGeometry x="1" y="1" width="90" height="50" relative="1" as="geometry">
            <mxPoint x="-90" y="-50" as="offset" />
          </mxGeometry>
        </mxCell>
        <mxCell id="qs-GRtZ3yT4NtCFrbVrK-309" value="" style="rounded=0;whiteSpace=wrap;html=1;" vertex="1" parent="1">
          <mxGeometry x="1730" y="1790" width="360" height="40" as="geometry" />
        </mxCell>
        <mxCell id="qs-GRtZ3yT4NtCFrbVrK-310" value="&lt;h1&gt;&lt;font face=&quot;Times New Roman&quot;&gt;Comentarios&lt;/font&gt;&lt;/h1&gt;" style="text;html=1;align=center;verticalAlign=middle;whiteSpace=wrap;rounded=0;" vertex="1" parent="1">
          <mxGeometry x="1460" y="1795" width="240" height="30" as="geometry" />
        </mxCell>
        <mxCell id="qs-GRtZ3yT4NtCFrbVrK-311" value="&lt;h1&gt;&lt;br&gt;&lt;br&gt;&lt;br&gt;&lt;br&gt;&lt;table style=&quot;margin-left:5.4pt;border-collapse:collapse;mso-table-layout-alt:fixed;&lt;br/&gt; border:none;mso-border-alt:solid #929292 .25pt;mso-yfti-tbllook:1184;&lt;br/&gt; mso-padding-alt:0in 5.4pt 0in 5.4pt;mso-border-insideh:.75pt solid #929292;&lt;br/&gt; mso-border-insidev:.75pt solid #929292&quot; width=&quot;641&quot; cellpadding=&quot;0&quot; cellspacing=&quot;0&quot; border=&quot;1&quot; class=&quot;MsoNormalTable&quot;&gt; &lt;tbody&gt;&lt;tr style=&quot;mso-yfti-irow:0;mso-yfti-firstrow:yes;mso-yfti-lastrow:yes;&lt;br/&gt;  height:13.95pt&quot;&gt;  &lt;td style=&quot;width:240.55pt;border:solid black 1.0pt;&lt;br/&gt;  mso-border-top-alt:.75pt;mso-border-left-alt:.25pt;mso-border-bottom-alt:&lt;br/&gt;  .25pt;mso-border-right-alt:.75pt;mso-border-color-alt:black;mso-border-style-alt:&lt;br/&gt;  solid;padding:4.0pt 4.0pt 4.0pt 4.0pt;height:13.95pt&quot; valign=&quot;top&quot; width=&quot;321&quot;&gt;&lt;p class=&quot;MsoNormal&quot;&gt;&lt;font face=&quot;Times New Roman&quot;&gt;Revisar consultas realizadas a un paciente&lt;/font&gt;&lt;/p&gt;  &lt;/td&gt; &lt;/tr&gt;&lt;/tbody&gt;&lt;/table&gt;&lt;/h1&gt;" style="text;html=1;align=center;verticalAlign=middle;whiteSpace=wrap;rounded=0;" vertex="1" parent="1">
          <mxGeometry x="79.75" y="2290" width="690" height="90" as="geometry" />
        </mxCell>
        <mxCell id="qs-GRtZ3yT4NtCFrbVrK-312" value="Doctor" style="shape=umlActor;verticalLabelPosition=bottom;verticalAlign=top;html=1;outlineConnect=0;" vertex="1" parent="1">
          <mxGeometry x="32.5" y="2650" width="30" height="60" as="geometry" />
        </mxCell>
        <mxCell id="qs-GRtZ3yT4NtCFrbVrK-313" value="Sistema" style="shape=umlActor;verticalLabelPosition=bottom;verticalAlign=top;html=1;outlineConnect=0;" vertex="1" parent="1">
          <mxGeometry x="769.75" y="2650" width="30" height="60" as="geometry" />
        </mxCell>
        <mxCell id="qs-GRtZ3yT4NtCFrbVrK-314" value="Accede al sistema" style="ellipse;whiteSpace=wrap;html=1;" vertex="1" parent="1">
          <mxGeometry x="90" y="2540" width="180" height="50" as="geometry" />
        </mxCell>
        <mxCell id="qs-GRtZ3yT4NtCFrbVrK-315" value="Hace click en &quot;Consultas realizadas&quot;" style="ellipse;whiteSpace=wrap;html=1;" vertex="1" parent="1">
          <mxGeometry x="140" y="2610" width="180" height="60" as="geometry" />
        </mxCell>
        <mxCell id="qs-GRtZ3yT4NtCFrbVrK-316" value="Busca al paciente entre &quot;Citas&quot; o &quot;Turno&quot;" style="ellipse;whiteSpace=wrap;html=1;" vertex="1" parent="1">
          <mxGeometry x="130" y="2680" width="210" height="70" as="geometry" />
        </mxCell>
        <mxCell id="qs-GRtZ3yT4NtCFrbVrK-317" value="Hace click en &quot;Ver detalles&quot;" style="ellipse;whiteSpace=wrap;html=1;" vertex="1" parent="1">
          <mxGeometry x="110" y="2760" width="210" height="50" as="geometry" />
        </mxCell>
        <mxCell id="qs-GRtZ3yT4NtCFrbVrK-318" value="" style="endArrow=classic;html=1;rounded=0;entryX=0;entryY=1;entryDx=0;entryDy=0;" edge="1" parent="1" target="qs-GRtZ3yT4NtCFrbVrK-314">
          <mxGeometry width="50" height="50" relative="1" as="geometry">
            <mxPoint x="70" y="2630" as="sourcePoint" />
            <mxPoint x="100" y="2570" as="targetPoint" />
          </mxGeometry>
        </mxCell>
        <mxCell id="qs-GRtZ3yT4NtCFrbVrK-319" value="" style="endArrow=classic;html=1;rounded=0;entryX=-0.003;entryY=0.376;entryDx=0;entryDy=0;entryPerimeter=0;" edge="1" parent="1" target="qs-GRtZ3yT4NtCFrbVrK-315">
          <mxGeometry width="50" height="50" relative="1" as="geometry">
            <mxPoint x="80" y="2670" as="sourcePoint" />
            <mxPoint x="140" y="2640" as="targetPoint" />
          </mxGeometry>
        </mxCell>
        <mxCell id="qs-GRtZ3yT4NtCFrbVrK-320" value="" style="endArrow=classic;html=1;rounded=0;entryX=0;entryY=0.5;entryDx=0;entryDy=0;" edge="1" parent="1" target="qs-GRtZ3yT4NtCFrbVrK-316">
          <mxGeometry width="50" height="50" relative="1" as="geometry">
            <mxPoint x="80" y="2690" as="sourcePoint" />
            <mxPoint x="130" y="2660" as="targetPoint" />
          </mxGeometry>
        </mxCell>
        <mxCell id="qs-GRtZ3yT4NtCFrbVrK-321" value="" style="endArrow=classic;html=1;rounded=0;entryX=0;entryY=0.5;entryDx=0;entryDy=0;" edge="1" parent="1" target="qs-GRtZ3yT4NtCFrbVrK-317">
          <mxGeometry width="50" height="50" relative="1" as="geometry">
            <mxPoint x="79.75" y="2720" as="sourcePoint" />
            <mxPoint x="129.75" y="2670" as="targetPoint" />
          </mxGeometry>
        </mxCell>
        <mxCell id="qs-GRtZ3yT4NtCFrbVrK-322" value="Da acceso al doctor" style="ellipse;whiteSpace=wrap;html=1;" vertex="1" parent="1">
          <mxGeometry x="560" y="2560" width="165" height="60" as="geometry" />
        </mxCell>
        <mxCell id="qs-GRtZ3yT4NtCFrbVrK-323" value="Muestra las consultas realizadas" style="ellipse;whiteSpace=wrap;html=1;" vertex="1" parent="1">
          <mxGeometry x="520" y="2660" width="180" height="60" as="geometry" />
        </mxCell>
        <mxCell id="qs-GRtZ3yT4NtCFrbVrK-324" value="Muestra todos los detalles anotados" style="ellipse;whiteSpace=wrap;html=1;" vertex="1" parent="1">
          <mxGeometry x="537.75" y="2750" width="187.25" height="50" as="geometry" />
        </mxCell>
        <mxCell id="qs-GRtZ3yT4NtCFrbVrK-325" value="" style="endArrow=classic;html=1;rounded=0;entryX=0.928;entryY=0.866;entryDx=0;entryDy=0;entryPerimeter=0;" edge="1" parent="1" target="qs-GRtZ3yT4NtCFrbVrK-322">
          <mxGeometry width="50" height="50" relative="1" as="geometry">
            <mxPoint x="749.75" y="2650" as="sourcePoint" />
            <mxPoint x="799.75" y="2600" as="targetPoint" />
          </mxGeometry>
        </mxCell>
        <mxCell id="qs-GRtZ3yT4NtCFrbVrK-326" value="" style="endArrow=classic;html=1;rounded=0;entryX=1;entryY=0.5;entryDx=0;entryDy=0;" edge="1" parent="1" target="qs-GRtZ3yT4NtCFrbVrK-323">
          <mxGeometry width="50" height="50" relative="1" as="geometry">
            <mxPoint x="750" y="2690" as="sourcePoint" />
            <mxPoint x="799.75" y="2650" as="targetPoint" />
          </mxGeometry>
        </mxCell>
        <mxCell id="qs-GRtZ3yT4NtCFrbVrK-327" value="" style="endArrow=classic;html=1;rounded=0;" edge="1" parent="1">
          <mxGeometry width="50" height="50" relative="1" as="geometry">
            <mxPoint x="750" y="2740" as="sourcePoint" />
            <mxPoint x="725" y="2770" as="targetPoint" />
          </mxGeometry>
        </mxCell>
        <mxCell id="qs-GRtZ3yT4NtCFrbVrK-328" value="&lt;h1&gt;&lt;font face=&quot;Times New Roman&quot;&gt;Flujo normal&lt;/font&gt;&lt;/h1&gt;" style="text;html=1;align=center;verticalAlign=middle;whiteSpace=wrap;rounded=0;" vertex="1" parent="1">
          <mxGeometry x="345" y="2480" width="160" height="30" as="geometry" />
        </mxCell>
        <mxCell id="qs-GRtZ3yT4NtCFrbVrK-329" value="Doctor" style="shape=umlActor;verticalLabelPosition=bottom;verticalAlign=top;html=1;outlineConnect=0;" vertex="1" parent="1">
          <mxGeometry x="20" y="3070" width="30" height="60" as="geometry" />
        </mxCell>
        <mxCell id="qs-GRtZ3yT4NtCFrbVrK-330" value="Sistema" style="shape=umlActor;verticalLabelPosition=bottom;verticalAlign=top;html=1;outlineConnect=0;" vertex="1" parent="1">
          <mxGeometry x="757.25" y="3070" width="30" height="60" as="geometry" />
        </mxCell>
        <mxCell id="qs-GRtZ3yT4NtCFrbVrK-333" value="&lt;p class=&quot;TableStyle2&quot;&gt;No encuentra al paciente que busca porque olvido anotar la&lt;br/&gt;consulta.&lt;/p&gt;" style="ellipse;whiteSpace=wrap;html=1;" vertex="1" parent="1">
          <mxGeometry x="130" y="3020" width="220" height="120" as="geometry" />
        </mxCell>
        <mxCell id="qs-GRtZ3yT4NtCFrbVrK-337" value="" style="endArrow=classic;html=1;rounded=0;entryX=0;entryY=0.5;entryDx=0;entryDy=0;" edge="1" parent="1" target="qs-GRtZ3yT4NtCFrbVrK-333">
          <mxGeometry width="50" height="50" relative="1" as="geometry">
            <mxPoint x="67.5" y="3110" as="sourcePoint" />
            <mxPoint x="117.5" y="3080" as="targetPoint" />
          </mxGeometry>
        </mxCell>
        <mxCell id="qs-GRtZ3yT4NtCFrbVrK-339" value="&lt;span style=&quot;&quot;&gt;&lt;font style=&quot;font-size: 12px;&quot; face=&quot;Helvetica&quot;&gt;Encuentra un fallo en las credenciales y le avisa al doctor para que las ingrese correctamente.&lt;/font&gt;&lt;/span&gt;" style="ellipse;whiteSpace=wrap;html=1;" vertex="1" parent="1">
          <mxGeometry x="430" y="2920" width="280" height="120" as="geometry" />
        </mxCell>
        <mxCell id="qs-GRtZ3yT4NtCFrbVrK-340" value="&lt;font style=&quot;font-size: 12px;&quot;&gt;No muestra ninguna consulta porque el doctor no anoto las consultas&lt;/font&gt;" style="ellipse;whiteSpace=wrap;html=1;" vertex="1" parent="1">
          <mxGeometry x="440" y="3050" width="247.5" height="100" as="geometry" />
        </mxCell>
        <mxCell id="qs-GRtZ3yT4NtCFrbVrK-341" value="&lt;font face=&quot;Helvetica&quot; style=&quot;font-size: 12px;&quot;&gt;No muestra detalles porque el doctor no anoto ninguno&lt;/font&gt;" style="ellipse;whiteSpace=wrap;html=1;" vertex="1" parent="1">
          <mxGeometry x="470" y="3170" width="242.5" height="80" as="geometry" />
        </mxCell>
        <mxCell id="qs-GRtZ3yT4NtCFrbVrK-342" value="" style="endArrow=classic;html=1;rounded=0;entryX=0.928;entryY=0.866;entryDx=0;entryDy=0;entryPerimeter=0;" edge="1" parent="1" target="qs-GRtZ3yT4NtCFrbVrK-339">
          <mxGeometry width="50" height="50" relative="1" as="geometry">
            <mxPoint x="737.25" y="3070" as="sourcePoint" />
            <mxPoint x="787.25" y="3020" as="targetPoint" />
          </mxGeometry>
        </mxCell>
        <mxCell id="qs-GRtZ3yT4NtCFrbVrK-343" value="" style="endArrow=classic;html=1;rounded=0;entryX=1;entryY=0.5;entryDx=0;entryDy=0;" edge="1" parent="1" target="qs-GRtZ3yT4NtCFrbVrK-340">
          <mxGeometry width="50" height="50" relative="1" as="geometry">
            <mxPoint x="737.5" y="3110" as="sourcePoint" />
            <mxPoint x="787.25" y="3070" as="targetPoint" />
          </mxGeometry>
        </mxCell>
        <mxCell id="qs-GRtZ3yT4NtCFrbVrK-344" value="" style="endArrow=classic;html=1;rounded=0;" edge="1" parent="1">
          <mxGeometry width="50" height="50" relative="1" as="geometry">
            <mxPoint x="737.5" y="3160" as="sourcePoint" />
            <mxPoint x="712.5" y="3190" as="targetPoint" />
          </mxGeometry>
        </mxCell>
        <mxCell id="qs-GRtZ3yT4NtCFrbVrK-345" value="&lt;h1&gt;&lt;font face=&quot;Times New Roman&quot;&gt;Flujo alterno&lt;/font&gt;&lt;/h1&gt;" style="text;html=1;align=center;verticalAlign=middle;whiteSpace=wrap;rounded=0;" vertex="1" parent="1">
          <mxGeometry x="345" y="2850" width="160" height="30" as="geometry" />
        </mxCell>
      </root>
    </mxGraphModel>
  </diagram>
</mxfile>
